<?xml version="1.0" encoding="utf-8"?>
<!-- Generator: Adobe Illustrator 25.4.1, SVG Export Plug-In . SVG Version: 6.00 Build 0)  -->
<svg version="1.1" id="Layer_1" xmlns="http://www.w3.org/2000/svg" xmlns:xlink="http://www.w3.org/1999/xlink" x="0px" y="0px"
	 viewBox="0 0 497.7 57" style="enable-background:new 0 0 497.7 57;" xml:space="preserve">
<style type="text/css">
	.st0{fill:#83BA41;}
	.st1{fill:#276FB8;}
	.st2{fill:#F18421;}
	.st3{fill:#231F20;stroke:#231F20;stroke-width:0.75;stroke-miterlimit:10;}
</style>
<g id="Layer_1-2">
	<path class="st0" d="M19.1,36.2h24.6l-8.4,15.2c-1.2,2.1-3.8,2.9-5.9,1.7c-0.7-0.4-1.3-1-1.7-1.7L19.1,36.2z"/>
	<path class="st1" d="M52.8,36.2h24.6l-8,14.4c-1.3,2.4-4.3,3.2-6.7,1.9c-0.8-0.4-1.4-1.1-1.9-1.9L52.8,36.2z"/>
	<path class="st0" d="M26.6,0.8H1.1C0.5,0.8,0,1.3,0,1.8C0,2,0,2.2,0.1,2.4l15.7,27.9h27.4l-15-26.8L26.6,0.8z"/>
	<path class="st1" d="M94.3,0.8H69.7l-1.5,2.7L53.3,30.3h27.4L95.8,3.2c0.4-0.8,0.2-1.7-0.6-2.2C94.9,0.9,94.6,0.8,94.3,0.8z"/>
	<polygon class="st2" points="48.3,28 63.4,0.8 33,0.8 	"/>
	<path class="st3" d="M110.1,38.9c0-0.2,0.1-0.4,0.2-0.5v-0.1c0.1-0.1,0.3-0.1,0.4-0.1c0.2,0,0.5,0.2,0.8,0.5
		c1.2,1.8,2.9,3.2,4.8,4.2c2.2,1,4.5,1.5,6.9,1.4c2.1,0,4.2-0.3,6.2-1c1.8-0.6,3.3-1.8,4.4-3.3c1.1-1.7,1.7-3.8,1.6-5.8
		c0.1-1.8-0.6-3.6-1.9-4.9c-1.2-1.2-2.6-2.1-4.2-2.6c-2-0.6-4-1.2-6-1.6c-2.4-0.4-4.7-1.2-6.9-2.2c-1.6-0.7-3-1.9-4.1-3.3
		c-0.9-1.4-1.4-3.1-1.4-4.9c-0.1-2,0.5-4.1,1.6-5.8c1.1-1.6,2.7-2.9,4.5-3.7c2.2-0.9,4.5-1.3,6.9-1.2c2.1,0,4.1,0.3,6.1,1.1
		c1.9,0.8,3.6,2.1,4.9,3.6c0.2,0.2,0.2,0.4,0.2,0.6c0,0.2,0,0.4-0.1,0.5l-0.1,0.1c-0.1,0.1-0.3,0.1-0.4,0.1c-0.1,0-0.3-0.1-0.4-0.1
		c-0.2-0.1-0.3-0.3-0.5-0.4c-0.9-0.8-1.8-1.6-2.8-2.3c-0.9-0.6-1.9-1-2.9-1.2c-1.3-0.3-2.7-0.4-4-0.4c-1.9,0-3.8,0.3-5.6,0.9
		C116.6,7,115.1,8,114,9.4c-1.2,1.5-1.8,3.4-1.7,5.3c-0.1,2.3,1.1,4.5,3.1,5.8c2.5,1.5,5.3,2.6,8.2,3.1c2.3,0.5,4.5,1.1,6.7,1.9
		c1.7,0.6,3.3,1.7,4.5,3c1.4,1.6,2.1,3.6,2,5.7c0.1,2.3-0.6,4.6-1.8,6.6c-1.2,1.8-2.9,3.1-4.9,3.9c-2.2,0.9-4.6,1.3-7,1.3
		c-2.5,0-4.9-0.4-7.1-1.5c-2.2-1.1-4.1-2.8-5.6-4.8C110.2,39.5,110.1,39.2,110.1,38.9z"/>
	<path class="st3" d="M156.4,13.4c0.4,0,0.6,0.2,0.6,0.7l0,0c0,0.2-0.1,0.3-0.2,0.5c-0.1,0.1-0.3,0.2-0.5,0.2h-6v24.7
		c0,1.1,0.3,2.2,0.8,3.1c0.6,0.9,1.6,1.4,2.7,1.3h1c0.6,0,0.9,0.2,0.9,0.7l0,0c0,0.2-0.1,0.4-0.1,0.5c-0.1,0.2-0.3,0.3-0.6,0.3
		c-0.7,0-1.4,0-2.1-0.1c-1.2-0.2-2.3-0.9-3-1.9c-0.7-1.1-1-2.5-1-3.8V14.8h-4.2c-0.4,0-0.7-0.2-0.7-0.5c0-0.1,0-0.1,0-0.2
		c0-0.4,0.2-0.7,0.5-0.7c0.1,0,0.1,0,0.2,0h4.2V4.1c0-0.6,0.2-0.9,0.7-0.9l0,0c0.5,0,0.7,0.3,0.7,0.9v9.3H156.4z"/>
	<path class="st3" d="M196.7,45.4L196.7,45.4c-0.5,0-0.7-0.3-0.7-1v-9.1c-0.8,2.1-2,4-3.6,5.6c-1.5,1.6-3.2,2.9-5.2,3.8
		c-4.5,2.2-9.9,1.8-14-1.1c-2.5-1.7-4.6-3.9-6-6.6c-1.5-2.8-2.3-5.9-2.3-9c0-3.2,0.8-6.3,2.3-9.1c1.4-2.7,3.5-5,6-6.7
		c4.1-2.9,9.4-3.3,13.9-1.1c2,0.9,3.7,2.3,5.2,3.9c1.5,1.7,2.7,3.6,3.6,5.7v-9.8c0-0.2,0-0.5,0.2-0.7c0.1-0.2,0.3-0.3,0.5-0.3l0,0
		c0.5,0,0.7,0.3,0.7,0.9v33.3C197.4,45.1,197.1,45.4,196.7,45.4z M193.8,19.8c-1.3-2.5-3.3-4.6-5.6-6.1c-4.3-3-10-3-14.3,0
		c-2.3,1.5-4.2,3.6-5.5,6.1c-1.4,2.6-2.1,5.4-2.1,8.3c0,2.9,0.7,5.7,2.1,8.2c1.3,2.4,3.2,4.5,5.5,6c2.1,1.5,4.6,2.2,7.2,2.2
		c2.6,0,5.2-0.8,7.4-2.2c2.3-1.5,4.2-3.6,5.5-6c1.3-2.5,2-5.4,2-8.2C195.9,25.2,195.2,22.4,193.8,19.8z"/>
	<path class="st3" d="M208.9,10.2L208.9,10.2c0.4,0,0.7,0.3,0.7,0.9v7.3c0.6-1.6,1.5-3.1,2.8-4.3c1.2-1.1,2.6-2,4.1-2.6
		c1.4-0.5,2.9-0.8,4.4-0.9c1.3,0,2.6,0.3,3.7,0.8c1.2,0.5,2.3,1.1,3.3,1.9c0.9,0.7,1.4,1.3,1.4,1.8c0,0.1,0,0.2-0.1,0.4l0,0
		c-0.1,0.2-0.3,0.3-0.6,0.3c-0.2,0-0.4-0.1-0.5-0.3c-1.9-2-4.4-3.1-7.2-3.3c-4,0-7.7,2.3-9.6,5.9c-1.3,2.4-1.9,5.1-1.8,7.8v18.5
		c0,0.6-0.2,0.9-0.7,0.9l0,0c-0.5,0-0.7-0.3-0.7-0.9V11.1C208.2,10.5,208.5,10.2,208.9,10.2z"/>
	<path class="st3" d="M239.2,4.4h11.9c2,0,4,0.6,5.7,1.7c1.8,1.2,3.2,2.8,4.2,4.6c1,2,1.6,4.2,1.5,6.4c0,2.2-0.5,4.4-1.5,6.4
		c-1,1.9-2.4,3.5-4.1,4.6c-1.7,1.1-3.7,1.7-5.7,1.7h-11.3v14.6c0,0.6-0.2,0.9-0.7,0.9l0,0c-0.5,0-0.7-0.3-0.7-0.9V5.2
		C238.5,4.7,238.7,4.4,239.2,4.4z M239.9,28.3h11.2c1.8,0,3.5-0.5,5-1.5c1.5-1,2.8-2.4,3.6-4c0.9-1.7,1.3-3.7,1.3-5.6
		c0-2-0.4-3.9-1.3-5.7c-0.8-1.6-2.1-3-3.6-4.1c-1.5-1-3.2-1.5-5-1.5h-11.2L239.9,28.3z"/>
	<path class="st3" d="M272.4,28.1c0,2.9,0.7,5.7,2,8.2c1.3,2.4,3.1,4.5,5.4,6.1c2.2,1.5,4.7,2.3,7.4,2.2c1.5,0,2.9-0.2,4.3-0.6
		c1.1-0.4,2.1-0.9,3.1-1.5c0.9-0.7,1.8-1.4,2.7-2.2c0.2-0.2,0.4-0.3,0.6-0.3c0.1,0,0.3,0.1,0.4,0.2h0c0.1,0.1,0.2,0.3,0.1,0.4
		c0,0.3-0.1,0.5-0.3,0.7c-1.5,1.4-3.2,2.6-5,3.4c-4.6,2-9.9,1.6-14.1-1.1c-2.5-1.7-4.5-3.9-5.9-6.6c-1.5-2.8-2.2-5.9-2.2-9
		c0-3.2,0.7-6.3,2.2-9.1c1.4-2.7,3.4-5,5.9-6.7c4.9-3.3,11.4-3.3,16.2,0.1c2.5,1.7,4.5,3.9,5.9,6.6c1.4,2.4,2.1,5.2,2.1,8v0.1
		c0,0.5-0.2,0.8-0.7,0.8h-30.2L272.4,28.1z M280.1,13.5c-2.2,1.4-4,3.2-5.3,5.4c-1.4,2.3-2.2,4.8-2.4,7.5h29.4
		c-0.2-2.4-0.9-4.8-2.2-6.9c-1.3-2.3-3.1-4.3-5.3-5.8C290.1,10.8,284.5,10.7,280.1,13.5L280.1,13.5z"/>
	<path class="st3" d="M313.8,10.5c0.1-0.2,0.3-0.3,0.5-0.2l0,0c0.5,0,0.7,0.3,0.7,0.9v9.5c0.8-2.1,2-4,3.5-5.6
		c1.5-1.6,3.2-2.9,5.2-3.8c1.9-0.9,4-1.3,6.1-1.3c2.8,0,5.6,0.9,7.9,2.4c2.5,1.6,4.6,3.9,6,6.5c1.5,2.7,2.3,5.8,2.3,8.9
		c0,3.2-0.7,6.3-2.1,9.2c-1.3,2.7-3.4,5-5.9,6.7c-4.3,2.9-9.7,3.3-14.4,1.1c-2-0.9-3.7-2.3-5.1-3.9c-1.5-1.7-2.7-3.6-3.5-5.7v20.9
		c0,0.6-0.2,0.9-0.7,0.9l0,0c-0.2,0-0.4-0.1-0.5-0.2c-0.1-0.2-0.2-0.4-0.2-0.7v-45C313.6,10.9,313.7,10.7,313.8,10.5z M316.9,36.2
		c1.2,2.5,3,4.6,5.3,6.1c2.3,1.5,4.9,2.3,7.6,2.3c2.6,0,5.2-0.8,7.4-2.2c2.3-1.6,4.1-3.7,5.4-6.2c1.3-2.6,2-5.5,2-8.4
		c0-2.9-0.7-5.7-2.1-8.2c-1.3-2.4-3.2-4.5-5.5-6c-2.1-1.4-4.6-2.2-7.2-2.2c-2.6,0-5.2,0.8-7.4,2.2c-2.3,1.5-4.2,3.5-5.4,6
		c-1.3,2.5-2,5.3-2,8.2C315,30.7,315.6,33.6,316.9,36.2z"/>
	<path class="st3" d="M387.9,44.8c-0.1,0.2-0.2,0.3-0.3,0.5c-0.1,0.1-0.2,0.1-0.3,0.1h-0.1c-0.3,0-0.5-0.2-0.6-0.6L371.8,5.6
		c0-0.1-0.1-0.2-0.1-0.4c0-0.2,0.1-0.4,0.2-0.6c0.1-0.1,0.3-0.2,0.5-0.2h0.1c0.2,0,0.4,0.2,0.5,0.5l14.1,37.8l14-37.8
		c0.1-0.4,0.3-0.5,0.6-0.5h0c0.2,0,0.4,0.1,0.5,0.2c0.2,0.1,0.2,0.3,0.2,0.6c0,0.1,0,0.3-0.1,0.4l-5.8,15.5l8.2,21.8L419,5
		c0.1-0.4,0.3-0.5,0.5-0.5h0.1c0.2,0,0.4,0.1,0.5,0.2c0.2,0.1,0.2,0.3,0.2,0.6c0,0.1,0,0.2-0.1,0.3l-14.7,39.3
		c-0.1,0.2-0.2,0.3-0.3,0.5c-0.1,0.1-0.2,0.1-0.3,0.1h-0.1c-0.1,0-0.2-0.1-0.3-0.1c-0.1-0.1-0.2-0.3-0.3-0.5L396,23.1L387.9,44.8z"
		/>
	<path class="st3" d="M424,28.1c0,2.9,0.7,5.7,2,8.2c1.2,2.4,3.1,4.5,5.4,6.1c2.2,1.5,4.7,2.3,7.4,2.2c1.5,0,2.9-0.2,4.3-0.6
		c1.1-0.3,2.1-0.9,3.1-1.5c0.9-0.7,1.8-1.4,2.7-2.2c0.2-0.2,0.4-0.3,0.6-0.3c0.2,0,0.3,0.1,0.4,0.2h0c0.1,0.1,0.2,0.3,0.1,0.4
		c0,0.3-0.1,0.5-0.3,0.7c-1.4,1.4-3.1,2.6-5,3.4c-4.6,2-9.9,1.6-14.1-1.2c-2.5-1.7-4.5-3.9-5.9-6.6c-1.5-2.8-2.2-5.9-2.2-9
		c0-3.2,0.7-6.3,2.2-9.1c1.4-2.7,3.4-5,5.9-6.6c2.4-1.6,5.1-2.5,8-2.5c2.9,0,5.8,0.9,8.2,2.6c2.5,1.7,4.5,3.9,5.9,6.6
		c1.4,2.4,2.1,5.2,2.1,8v0.1c0,0.5-0.2,0.8-0.7,0.8H424V28.1z M431.8,13.5c-2.2,1.4-4,3.2-5.2,5.4c-1.4,2.3-2.2,4.8-2.5,7.5h29.4
		c-0.2-2.4-0.9-4.8-2.2-6.9c-1.3-2.3-3.1-4.3-5.3-5.8C441.7,10.8,436.1,10.7,431.8,13.5L431.8,13.5z"/>
	<path class="st3" d="M465.4,0.2c0.1-0.2,0.3-0.3,0.5-0.2l0,0c0.4,0,0.7,0.3,0.7,0.9v20c0.8-2.1,2.1-4,3.6-5.7
		c1.5-1.6,3.3-3,5.3-3.9c1.9-0.9,4.1-1.4,6.2-1.4c2.8,0,5.6,0.8,8,2.4c2.5,1.7,4.5,4,5.8,6.7c1.5,2.8,2.2,5.9,2.2,9.1
		c0,3.1-0.7,6.2-2.2,9c-1.4,2.7-3.4,4.9-5.9,6.6c-2.3,1.6-5,2.4-7.8,2.5c-2.1,0-4.3-0.5-6.2-1.4c-2-0.9-3.8-2.2-5.3-3.8
		c-1.5-1.6-2.7-3.5-3.6-5.6v9.2c0,0.6-0.2,0.9-0.7,0.9l0,0c-0.2,0-0.4-0.1-0.5-0.2c-0.1-0.2-0.2-0.4-0.2-0.7V0.9
		C465.2,0.7,465.3,0.4,465.4,0.2z M468.7,36.4c1.3,2.4,3.2,4.5,5.6,6c2.2,1.5,4.8,2.2,7.5,2.2c2.5,0,5-0.8,7.1-2.2
		c2.3-1.5,4.1-3.6,5.4-6c1.3-2.5,2-5.4,2-8.2c0-2.9-0.7-5.8-2-8.3c-1.2-2.4-3-4.5-5.3-6.1c-2.1-1.5-4.6-2.3-7.2-2.2
		c-2.7,0-5.3,0.8-7.5,2.2c-2.3,1.5-4.2,3.6-5.5,6.1c-1.4,2.6-2.1,5.4-2.1,8.3C466.6,31,467.3,33.9,468.7,36.4z"/>
</g>
</svg>
