<?xml version="1.0" standalone="no"?>
<!DOCTYPE svg PUBLIC "-//W3C//DTD SVG 20010904//EN"
 "http://www.w3.org/TR/2001/REC-SVG-20010904/DTD/svg10.dtd">
<svg version="1.0" xmlns="http://www.w3.org/2000/svg"
 width="1536.000000pt" height="1536.000000pt" viewBox="0 0 1536.000000 1536.000000"
 preserveAspectRatio="xMidYMid meet">
<metadata>
Created by potrace 1.14, written by Peter Selinger 2001-2017
</metadata>
<g transform="translate(0.000000,1536.000000) scale(0.100000,-0.100000)"
fill="#000000" stroke="none">
<path d="M95 11893 c-102 -55 -121 -142 -56 -265 21 -40 47 -89 57 -108 11
-19 21 -37 24 -40 3 -3 15 -23 27 -45 11 -22 31 -58 44 -80 12 -22 29 -52 36
-67 8 -15 19 -30 24 -33 5 -4 7 -11 4 -16 -4 -5 -1 -9 4 -9 6 0 11 -4 11 -9 0
-5 27 -56 60 -114 33 -57 60 -109 60 -116 0 -6 4 -11 9 -11 5 0 11 -8 14 -17
3 -10 19 -40 36 -68 16 -27 40 -71 53 -97 13 -27 26 -48 30 -48 5 0 8 -5 8
-10 0 -6 33 -68 73 -138 40 -70 83 -148 97 -174 14 -27 28 -48 32 -48 5 0 8
-9 8 -20 0 -11 5 -20 10 -20 6 0 10 -5 10 -11 0 -6 17 -41 39 -77 21 -37 71
-125 111 -197 40 -71 80 -141 88 -155 9 -14 17 -31 18 -39 2 -8 6 -17 11 -20
4 -3 15 -19 24 -36 65 -121 83 -152 95 -165 7 -8 16 -27 19 -42 4 -16 10 -28
14 -28 3 0 15 -17 26 -37 10 -21 40 -74 65 -118 26 -44 53 -95 61 -112 7 -18
17 -33 21 -33 5 0 8 -4 8 -10 0 -5 23 -48 50 -96 28 -48 50 -88 50 -90 0 -1
31 -56 69 -123 38 -66 85 -148 104 -183 19 -35 44 -79 56 -98 11 -19 24 -42
28 -50 3 -8 61 -112 128 -230 66 -118 124 -222 128 -230 4 -8 13 -24 20 -35
11 -18 55 -97 107 -190 95 -170 126 -224 142 -247 11 -16 16 -28 12 -28 -3 0
-2 -6 4 -12 10 -12 151 -259 165 -289 4 -8 21 -36 37 -64 17 -27 35 -62 41
-77 10 -25 16 -28 62 -28 56 -1 4184 0 4280 0 l58 0 -32 58 c-18 31 -43 77
-56 102 -13 25 -32 59 -42 75 -10 17 -30 51 -44 77 -15 26 -47 84 -72 128 -25
43 -45 84 -45 89 0 5 -4 11 -9 13 -5 2 -23 30 -40 63 -17 33 -47 87 -66 120
-19 33 -43 76 -53 95 -10 19 -29 53 -41 75 -13 22 -33 58 -44 80 -12 22 -28
46 -34 53 -7 7 -13 17 -13 21 0 5 -45 88 -100 185 -55 97 -107 192 -117 209
-10 18 -24 40 -32 50 -8 9 -11 17 -7 17 4 0 -1 12 -12 28 -11 15 -32 50 -46
77 -15 28 -37 66 -48 85 -12 19 -32 55 -45 80 -13 25 -34 63 -47 85 -12 22
-40 72 -61 110 -21 39 -51 92 -67 118 -15 26 -28 52 -28 57 0 6 -3 10 -7 10
-5 0 -19 24 -33 53 -14 28 -28 54 -31 57 -6 4 -16 23 -61 110 -7 14 -15 27
-18 30 -3 3 -13 21 -24 40 -41 78 -89 166 -96 175 -4 6 -22 37 -40 70 -55 100
-79 142 -187 333 -56 101 -103 188 -103 193 0 5 -4 9 -10 9 -5 0 -10 4 -10 10
0 5 -22 48 -50 96 -28 48 -50 89 -50 91 0 3 -17 35 -39 71 -108 185 -221 391
-221 401 0 6 -3 11 -7 11 -5 0 -13 10 -19 23 -19 40 -86 161 -111 199 -12 21
-23 40 -23 42 0 2 -31 59 -70 127 -38 67 -70 124 -70 125 0 2 -13 25 -28 51
-16 26 -44 77 -64 113 -20 36 -44 80 -54 97 l-19 33 -2070 0 c-1882 -1 -2073
-2 -2100 -17z"/>
<path d="M5321 11833 c23 -43 49 -86 57 -95 8 -10 11 -18 7 -18 -4 0 -2 -8 6
-17 8 -10 20 -29 27 -42 8 -13 23 -40 34 -60 12 -20 36 -65 56 -101 19 -36 38
-69 42 -75 4 -5 22 -37 40 -70 89 -163 134 -240 142 -243 4 -2 8 -10 8 -18 0
-8 11 -32 25 -52 14 -20 25 -42 25 -49 0 -7 3 -13 8 -13 4 0 20 -28 37 -63 16
-34 33 -64 37 -67 4 -3 19 -28 34 -55 51 -97 69 -130 75 -135 3 -3 13 -21 22
-40 10 -19 33 -62 52 -95 19 -33 42 -73 51 -90 8 -16 26 -48 38 -70 13 -22 36
-62 51 -90 15 -27 37 -66 48 -85 23 -36 64 -113 94 -170 10 -19 21 -36 26 -38
4 -2 7 -7 7 -11 0 -7 129 -241 188 -341 15 -25 27 -47 27 -50 0 -3 8 -16 17
-30 8 -14 22 -37 29 -52 23 -46 217 -392 226 -403 4 -6 18 -28 30 -50 30 -57
92 -167 142 -255 18 -30 35 -63 38 -72 3 -10 9 -18 14 -18 5 0 9 -5 9 -12 0
-6 20 -45 44 -87 45 -80 79 -140 129 -231 17 -30 38 -68 48 -85 10 -16 32 -57
49 -90 18 -33 39 -68 48 -77 8 -10 12 -18 8 -18 -4 0 1 -12 12 -27 10 -16 48
-80 83 -143 35 -63 69 -124 76 -135 6 -11 21 -38 32 -60 39 -76 97 -170 105
-170 5 0 13 7 17 15 5 8 36 65 69 125 33 61 65 117 70 125 6 8 13 22 17 30 3
8 33 61 65 118 32 57 58 107 58 112 0 4 7 13 15 20 8 7 12 16 9 21 -3 5 -2 9
3 9 4 0 14 15 22 33 8 17 17 34 20 37 7 5 21 31 74 131 19 36 41 77 49 90 9
13 29 49 45 79 17 30 39 71 50 90 79 140 143 260 143 269 0 6 4 11 9 11 5 0
11 8 14 18 3 9 24 49 47 87 22 39 48 87 57 108 9 20 20 37 25 37 4 0 8 4 8 9
0 8 73 145 127 236 12 22 35 65 50 95 15 30 31 57 34 60 4 3 21 32 38 65 85
161 124 230 132 233 5 2 9 9 9 15 0 6 24 54 54 106 29 53 68 123 86 156 39 71
57 103 110 196 22 39 40 74 40 79 0 4 7 13 15 20 9 7 13 15 11 18 -3 2 6 21
19 41 14 19 25 41 25 48 0 7 5 13 10 13 6 0 10 4 10 9 0 5 24 51 53 103 29 51
61 109 70 128 10 19 24 44 30 55 17 28 128 228 167 300 18 33 36 65 40 70 4 6
25 44 47 85 22 41 49 91 60 110 11 19 48 87 83 150 35 63 72 131 83 150 11 19
31 55 45 80 13 25 38 69 54 98 l29 52 -2431 0 -2431 0 42 -77z"/>
<path d="M11143 11898 c-5 -7 -18 -32 -29 -55 -10 -24 -22 -43 -26 -43 -5 0
-8 -4 -8 -10 0 -5 -38 -79 -85 -164 -47 -84 -85 -158 -85 -164 0 -6 -4 -12 -8
-14 -8 -3 -27 -36 -130 -228 -20 -36 -38 -67 -41 -70 -3 -3 -16 -25 -28 -50
-12 -25 -37 -72 -56 -105 -46 -80 -99 -176 -162 -290 -15 -27 -35 -63 -45 -80
-10 -16 -31 -55 -47 -85 -63 -116 -97 -177 -132 -240 -21 -36 -46 -82 -56
-102 -11 -21 -24 -38 -29 -38 -5 0 -7 -3 -4 -6 5 -5 -8 -31 -85 -164 -11 -19
-29 -53 -40 -75 -11 -22 -29 -52 -39 -67 -11 -16 -16 -28 -12 -28 4 0 0 -8 -8
-17 -9 -10 -31 -47 -49 -82 -41 -76 -51 -95 -66 -112 -6 -8 -12 -17 -12 -21
-3 -18 -46 -98 -53 -98 -4 0 -8 -9 -8 -20 0 -11 -5 -20 -11 -20 -5 0 -8 -4 -5
-9 4 -5 3 -11 -2 -13 -7 -3 -71 -115 -156 -273 -18 -33 -43 -78 -55 -99 -13
-22 -35 -63 -49 -90 -14 -28 -28 -53 -31 -56 -4 -3 -15 -23 -27 -45 -11 -22
-30 -56 -41 -75 -11 -19 -37 -66 -57 -105 -21 -38 -41 -74 -46 -80 -4 -5 -26
-46 -50 -90 -76 -141 -94 -173 -185 -335 -23 -41 -56 -100 -73 -130 -16 -30
-46 -83 -65 -117 -20 -34 -38 -71 -42 -82 -3 -12 -11 -21 -16 -21 -5 0 -9 -9
-9 -20 0 -11 -4 -20 -9 -20 -5 0 -15 -16 -22 -35 -7 -19 -17 -35 -21 -35 -4 0
-8 -5 -8 -10 0 -6 -20 -45 -44 -88 -24 -42 -57 -102 -74 -132 -16 -30 -60
-109 -96 -174 -36 -66 -64 -121 -62 -123 2 -2 986 -4 2186 -4 l2183 0 16 23
c9 13 24 39 35 58 10 19 30 55 43 80 14 25 41 74 61 110 20 36 44 79 54 95 10
17 21 37 25 45 4 8 23 44 44 80 20 36 51 92 69 125 18 33 53 95 76 137 24 43
44 82 44 88 0 5 4 10 9 10 5 0 11 8 14 18 3 9 21 44 40 77 18 33 51 92 72 130
21 39 43 73 49 77 6 4 8 8 4 8 -3 0 65 127 151 283 87 155 175 314 196 352 21
39 41 75 45 80 4 6 21 35 37 65 85 158 154 282 174 311 10 14 16 29 12 33 -3
3 -1 6 5 6 7 0 12 4 12 9 0 5 30 62 67 127 36 66 78 142 92 169 14 28 29 52
34 53 4 2 7 8 7 13 0 4 41 80 90 168 50 88 90 165 90 171 0 5 4 10 8 10 4 0
13 12 19 28 7 15 26 52 43 82 18 30 57 100 88 155 30 55 64 116 75 135 11 19
32 58 46 85 14 28 29 52 33 53 5 2 8 7 8 12 0 4 17 39 39 77 76 136 94 169
120 218 14 28 28 52 31 55 3 3 15 22 26 43 36 73 39 77 46 77 5 0 8 6 8 13 0
6 34 73 76 147 97 171 114 212 114 264 0 105 -55 197 -147 242 -37 18 -97 19
-2049 22 -1608 2 -2013 0 -2021 -10z"/>
<path d="M3078 6239 c-14 -8 -10 -21 38 -105 30 -53 54 -100 54 -105 0 -5 3
-9 8 -9 4 0 12 -10 18 -23 20 -41 97 -182 103 -187 8 -7 25 -37 63 -113 17
-34 34 -64 38 -67 4 -3 18 -27 32 -55 14 -27 35 -66 46 -85 12 -19 30 -51 39
-70 10 -19 21 -36 26 -38 4 -2 7 -7 7 -11 0 -5 23 -47 50 -95 28 -48 50 -91
50 -96 0 -6 5 -10 11 -10 5 0 8 -4 4 -9 -3 -5 0 -13 5 -16 6 -4 15 -17 20 -28
6 -12 26 -49 45 -82 20 -33 41 -71 48 -85 6 -14 14 -27 17 -30 3 -3 13 -21 24
-40 37 -71 79 -146 112 -201 19 -31 34 -62 34 -68 0 -6 3 -11 8 -11 4 0 12
-10 18 -23 17 -37 79 -152 84 -157 5 -5 15 -23 59 -103 16 -29 47 -83 68 -122
22 -38 91 -160 153 -269 95 -167 125 -211 184 -270 39 -39 85 -81 102 -92 40
-29 154 -82 187 -88 15 -2 31 -7 36 -11 28 -17 205 -25 281 -13 169 27 345
133 447 271 25 34 49 71 54 82 5 11 20 38 32 60 13 22 45 81 72 130 27 50 53
93 59 97 6 4 7 8 3 8 -5 0 0 12 11 28 10 15 39 65 63 112 24 47 47 87 50 90 3
3 25 41 48 85 24 44 57 105 74 135 17 30 35 64 41 75 6 11 13 22 16 25 3 3 14
23 25 45 11 22 34 65 51 95 36 62 71 126 122 220 19 36 50 91 68 123 19 32 34
62 34 68 0 5 5 9 10 9 6 0 10 8 10 17 0 9 6 24 13 32 12 14 77 130 167 296 55
102 94 172 126 228 19 32 34 62 34 68 0 5 4 9 9 9 5 0 12 14 16 31 4 17 13 33
20 35 7 3 16 17 20 32 4 15 10 29 13 32 4 3 23 35 42 72 19 37 38 68 43 68 4
0 7 8 7 18 0 9 9 28 20 42 11 14 20 30 20 36 0 14 -38 25 -45 13 -3 -4 -17 -4
-30 1 -17 6 -25 6 -25 -1 0 -6 -5 -7 -10 -4 -13 8 -173 10 -186 3 -5 -3 -18
-2 -29 2 -11 4 -30 4 -42 -1 -13 -5 -25 -4 -28 2 -4 5 -12 6 -18 2 -16 -10
-37 -10 -64 -1 -13 4 -23 3 -23 -2 0 -6 -9 -6 -25 0 -14 5 -25 6 -25 2 0 -9
-64 -7 -79 3 -6 3 -11 1 -11 -5 0 -6 -4 -8 -10 -5 -13 8 -113 10 -126 3 -5 -3
-18 -2 -29 2 -11 4 -30 4 -42 -1 -13 -5 -25 -4 -28 2 -4 5 -11 6 -17 3 -15
-10 -69 -11 -74 -2 -3 4 -16 3 -29 -2 -16 -6 -25 -6 -25 0 0 6 -9 6 -24 0 -13
-5 -26 -6 -29 -4 -7 7 -171 9 -183 2 -5 -3 -18 -2 -29 2 -11 4 -30 4 -42 -1
-13 -5 -25 -4 -28 2 -4 5 -12 6 -18 2 -16 -10 -37 -10 -64 -1 -13 4 -23 3 -23
-2 0 -6 -9 -6 -25 0 -15 6 -25 6 -25 0 0 -5 -12 -5 -30 0 -16 5 -30 6 -30 2 0
-4 -11 -7 -25 -7 -14 0 -25 4 -25 8 0 4 -8 3 -18 -2 -10 -5 -24 -6 -31 -2 -7
5 -28 5 -46 1 -19 -4 -38 -3 -43 2 -6 6 -12 6 -16 -1 -4 -7 -15 -7 -30 -1 -13
5 -26 7 -29 4 -9 -9 -62 -11 -84 -2 -14 4 -23 4 -23 -2 0 -5 -6 -7 -14 -4 -18
7 -106 10 -106 4 0 -3 -13 -5 -30 -5 -16 0 -30 4 -30 8 0 4 -8 3 -18 -2 -10
-5 -24 -6 -33 -1 -8 5 -21 5 -29 0 -7 -4 -24 -4 -37 1 -14 5 -23 5 -23 -1 0
-5 -6 -7 -14 -4 -18 7 -106 10 -106 4 0 -3 -13 -5 -30 -5 -16 0 -30 4 -30 8 0
4 -8 3 -18 -2 -10 -5 -24 -6 -33 -1 -8 5 -21 5 -29 0 -7 -4 -24 -4 -37 1 -14
5 -23 5 -23 -1 0 -5 -6 -7 -14 -4 -18 7 -106 10 -106 4 0 -3 -13 -5 -30 -5
-16 0 -30 4 -30 8 0 4 -8 3 -18 -2 -10 -5 -24 -6 -33 -1 -8 5 -21 5 -29 0 -7
-4 -24 -4 -37 1 -14 5 -23 5 -23 -1 0 -5 -6 -7 -14 -4 -18 7 -106 10 -106 4 0
-3 -13 -5 -30 -5 -16 0 -30 4 -30 8 0 4 -8 3 -19 -2 -10 -6 -21 -8 -23 -5 -10
10 -48 13 -53 4 -3 -5 -15 -6 -28 -1 -12 5 -32 5 -44 0 -13 -5 -25 -4 -28 2
-4 5 -12 6 -18 2 -16 -10 -37 -10 -64 -1 -13 4 -23 3 -23 -2 0 -6 -9 -6 -25 0
-14 5 -25 6 -25 2 0 -9 -64 -7 -79 3 -6 3 -11 1 -11 -5 0 -6 -4 -8 -10 -5 -13
8 -113 10 -126 3 -5 -3 -18 -2 -29 2 -11 4 -30 4 -42 -1 -15 -5 -23 -5 -23 2
0 6 -9 5 -22 -2 -13 -7 -25 -11 -28 -10 -3 2 -13 7 -22 12 -10 5 -18 6 -18 1
0 -10 -30 -10 -45 0 -6 4 -18 2 -27 -3z"/>
<path d="M8488 6242 l-28 -3 26 -47 c14 -26 29 -54 35 -62 17 -28 159 -283
159 -286 0 -3 10 -21 23 -42 22 -34 70 -120 113 -202 11 -19 21 -37 24 -40 7
-7 39 -67 59 -107 8 -18 19 -33 23 -33 4 0 8 -9 8 -20 0 -11 5 -20 10 -20 6 0
10 -4 10 -9 0 -5 23 -48 50 -96 28 -48 50 -91 50 -96 0 -5 5 -9 11 -9 5 0 8
-4 5 -9 -3 -5 1 -14 9 -21 8 -7 15 -16 15 -20 0 -5 23 -48 52 -97 28 -48 62
-108 75 -133 13 -25 27 -52 33 -60 14 -23 220 -389 247 -440 12 -25 27 -52 33
-60 30 -48 120 -213 120 -221 0 -5 3 -9 8 -9 4 0 14 -15 21 -32 17 -39 109
-195 131 -222 56 -70 185 -186 208 -186 6 0 12 -4 14 -8 2 -6 87 -51 108 -57
3 -1 12 -4 20 -8 122 -49 316 -59 469 -23 43 10 96 28 107 37 6 5 14 6 17 2 4
-3 7 -1 7 5 0 7 8 12 19 12 10 0 24 7 31 15 7 8 17 15 22 15 16 0 120 84 168
136 67 72 161 218 191 297 6 15 15 27 20 27 5 0 9 4 9 10 0 5 39 79 88 165 94
168 142 255 193 350 18 33 38 68 44 77 5 9 24 43 40 75 17 32 33 60 36 63 3 3
24 39 46 80 22 41 61 111 85 155 25 44 58 103 73 130 15 28 48 85 71 127 24
43 44 80 44 84 0 4 6 15 14 23 7 9 30 48 50 86 20 39 41 77 46 85 28 43 170
304 170 312 0 4 4 8 8 8 4 0 14 16 21 35 7 19 16 35 21 35 5 0 11 14 15 30 4
17 10 30 15 30 4 0 10 8 13 18 3 9 22 46 42 81 19 35 34 66 31 68 -6 6 -96 9
-96 3 0 -3 -13 -5 -30 -5 -16 0 -30 4 -30 8 0 4 -8 3 -18 -2 -10 -5 -24 -6
-33 -1 -8 5 -21 5 -29 0 -7 -4 -24 -4 -37 1 -14 5 -23 5 -23 -1 0 -5 -6 -7
-14 -4 -18 7 -106 10 -106 4 0 -3 -13 -5 -30 -5 -16 0 -30 4 -30 8 0 4 -8 3
-18 -2 -10 -5 -24 -6 -33 -1 -8 5 -21 5 -29 0 -7 -4 -24 -4 -37 1 -14 5 -23 5
-23 -1 0 -5 -6 -7 -14 -4 -18 7 -106 10 -106 4 0 -3 -13 -5 -30 -5 -16 0 -30
4 -30 8 0 4 -8 3 -19 -2 -10 -6 -21 -8 -23 -5 -10 10 -48 13 -53 4 -3 -5 -15
-6 -28 -1 -12 5 -32 5 -44 0 -13 -5 -25 -4 -28 2 -4 5 -12 6 -18 2 -16 -10
-37 -10 -64 -1 -13 4 -23 3 -23 -2 0 -6 -9 -6 -25 0 -14 5 -25 6 -25 2 0 -9
-64 -7 -79 3 -6 3 -11 1 -11 -5 0 -6 -4 -8 -10 -5 -13 8 -113 10 -126 3 -5 -3
-18 -2 -29 2 -11 4 -30 4 -42 -1 -13 -5 -25 -4 -28 2 -4 5 -11 6 -17 3 -15
-10 -69 -11 -74 -2 -3 4 -16 3 -29 -2 -16 -6 -25 -6 -25 0 0 6 -9 6 -24 0 -13
-5 -26 -6 -29 -4 -7 7 -171 9 -183 2 -5 -3 -18 -2 -29 2 -11 4 -30 4 -42 -1
-13 -5 -25 -4 -28 2 -4 5 -12 6 -18 2 -16 -10 -37 -10 -64 -1 -13 4 -23 3 -23
-2 0 -6 -9 -6 -25 0 -14 5 -25 6 -25 2 0 -9 -64 -7 -79 3 -6 3 -11 1 -11 -5 0
-6 -4 -8 -10 -5 -13 8 -113 10 -126 3 -5 -3 -18 -2 -29 2 -11 4 -30 4 -42 -1
-13 -5 -25 -4 -28 2 -4 5 -11 6 -17 3 -15 -10 -69 -11 -74 -2 -3 4 -16 3 -29
-2 -16 -6 -25 -6 -25 0 0 6 -9 6 -24 0 -13 -5 -26 -6 -29 -4 -7 7 -171 9 -183
2 -5 -3 -18 -2 -29 2 -11 4 -30 4 -42 -1 -13 -5 -25 -4 -28 2 -4 5 -12 6 -18
2 -16 -10 -37 -10 -64 -1 -13 4 -23 3 -23 -2 0 -6 -9 -6 -25 0 -15 6 -25 6
-25 0 0 -5 -12 -5 -30 0 -16 5 -30 6 -30 2 0 -4 -11 -7 -25 -7 -14 0 -25 4
-25 8 0 4 -8 3 -18 -2 -10 -5 -24 -6 -31 -2 -7 5 -28 5 -46 1 -19 -4 -38 -3
-43 2 -6 6 -12 6 -16 -1 -4 -7 -15 -7 -30 -1 -13 5 -26 7 -29 4 -9 -9 -62 -11
-84 -2 -14 4 -23 4 -23 -2 0 -5 -6 -7 -14 -4 -18 7 -106 10 -106 4 0 -3 -13
-5 -30 -5 -16 0 -30 4 -30 8 0 4 -8 3 -18 -2 -10 -5 -24 -6 -32 -1 -7 4 -23 5
-35 0 -11 -4 -28 -4 -37 1 -10 6 -19 6 -23 0 -3 -6 -16 -7 -28 -3 -12 4 -34 6
-49 4z"/>
</g>
</svg>
