<?xml version="1.0" standalone="no"?>
<!DOCTYPE svg PUBLIC "-//W3C//DTD SVG 20010904//EN"
 "http://www.w3.org/TR/2001/REC-SVG-20010904/DTD/svg10.dtd">
<svg version="1.0" xmlns="http://www.w3.org/2000/svg"
 width="280.000000pt" height="280.000000pt" viewBox="0 0 280.000000 280.000000"
 preserveAspectRatio="xMidYMid meet">
<metadata>
Created by potrace 1.14, written by Peter Selinger 2001-2017
</metadata>
<g transform="translate(0.000000,280.000000) scale(0.100000,-0.100000)"
fill="#000000" stroke="none">
<path d="M219 2788 c-7 -62 20 -107 74 -125 74 -25 147 25 147 101 l0 36 -110
0 c-81 0 -110 -3 -111 -12z"/>
<path d="M570 2781 c0 -50 75 -98 134 -87 38 7 86 55 86 87 0 18 -8 19 -110
19 -101 0 -110 -2 -110 -19z"/>
<path d="M945 2778 c4 -13 20 -35 36 -50 23 -22 39 -28 75 -28 39 0 51 5 80
34 59 59 51 66 -82 66 -115 0 -115 0 -109 -22z"/>
<path d="M2084 2775 c-35 -54 -11 -145 43 -166 59 -22 131 1 152 48 16 35 13
90 -5 118 -15 23 -22 25 -95 25 -73 0 -80 -2 -95 -25z"/>
<path d="M1792 2677 c-34 -19 -53 -53 -55 -96 -2 -49 24 -88 71 -108 75 -31
152 22 152 107 0 34 -6 48 -34 76 -27 27 -42 34 -72 34 -22 -1 -49 -6 -62 -13z"/>
<path d="M0 2546 c0 -115 0 -116 24 -116 36 0 90 42 102 80 22 66 -20 135 -89
147 l-37 6 0 -117z"/>
<path d="M1530 2632 c-44 -22 -76 -77 -66 -117 4 -15 22 -43 41 -62 26 -26 41
-33 71 -33 88 0 146 81 111 155 -18 37 -69 75 -102 75 -11 0 -36 -8 -55 -18z"/>
<path d="M2472 2613 c-39 -19 -62 -59 -62 -109 0 -52 53 -104 107 -104 136 0
167 171 40 219 -37 14 -46 14 -85 -6z"/>
<path d="M1114 2601 c-68 -29 -86 -126 -35 -183 26 -29 36 -33 79 -33 27 0 49
-4 49 -10 0 -71 4 -95 19 -95 8 0 12 5 8 11 -3 6 -8 32 -10 57 -3 38 1 51 20
72 44 48 39 118 -12 163 -24 22 -87 31 -118 18z"/>
<path d="M640 2537 c-13 -7 -35 -28 -48 -47 -53 -79 14 -180 112 -167 109 15
134 161 36 212 -35 18 -67 19 -100 2z"/>
<path d="M332 2427 c-27 -16 -49 -46 -52 -72 -8 -74 21 -121 84 -135 97 -22
165 65 126 160 -22 53 -103 77 -158 47z"/>
<path d="M1382 2420 c-18 -11 -40 -35 -49 -55 -14 -29 -15 -41 -4 -75 6 -22
22 -47 35 -55 20 -14 22 -21 18 -67 -4 -37 -2 -49 7 -44 6 4 11 13 10 19 -1 7
-1 24 0 40 1 24 5 27 36 27 73 0 115 43 115 118 0 55 -60 112 -118 112 -9 0
-32 -9 -50 -20z"/>
<path d="M2045 2410 c-11 -4 -31 -20 -44 -34 -20 -21 -25 -37 -25 -84 l-1 -57
44 -24 c59 -31 115 -25 154 19 77 87 -20 225 -128 180z"/>
<path d="M995 2378 c9 -42 23 -68 36 -68 6 0 5 9 -2 23 -7 12 -11 22 -10 22 1
0 -2 12 -8 28 -14 37 -24 34 -16 -5z"/>
<path d="M2345 2393 c-33 -8 -74 -54 -81 -89 -9 -49 13 -99 53 -118 83 -39
160 0 170 86 5 42 2 49 -28 82 -34 36 -74 50 -114 39z"/>
<path d="M825 2309 c-29 -26 -35 -38 -35 -71 0 -54 25 -97 65 -114 44 -18 63
-18 100 2 16 8 31 12 32 7 2 -4 8 -15 13 -23 14 -23 22 -6 10 24 -7 18 -7 33
0 46 16 29 12 72 -9 104 -43 64 -119 75 -176 25z"/>
<path d="M1788 2335 c-4 -4 -4 -13 -1 -21 3 -9 -1 -14 -12 -14 -25 0 -85 -64
-85 -92 0 -21 -3 -23 -44 -20 -43 4 -44 5 -36 28 7 18 6 24 -4 24 -8 0 -17
-13 -21 -29 -3 -16 -17 -43 -31 -62 -33 -45 -33 -107 1 -147 15 -18 23 -37 19
-46 -6 -17 11 -23 20 -7 3 4 26 11 52 14 49 5 93 38 120 90 12 22 21 27 54 27
41 0 56 10 118 83 33 39 40 57 21 57 -5 0 -8 -4 -5 -9 3 -5 -1 -12 -10 -15
-23 -9 -24 -8 -24 18 0 31 -50 81 -89 89 -16 3 -31 14 -33 22 -2 9 -6 14 -10
10z"/>
<path d="M1030 2276 c0 -9 5 -16 10 -16 6 0 10 4 10 9 0 6 -4 13 -10 16 -5 3
-10 -1 -10 -9z"/>
<path d="M1606 2275 c-3 -8 -1 -15 4 -15 6 0 10 7 10 15 0 8 -2 15 -4 15 -2 0
-6 -7 -10 -15z"/>
<path d="M2622 2257 c-37 -21 -54 -55 -56 -110 -1 -56 1 -59 74 -93 72 -34
150 21 150 106 0 34 -6 48 -34 76 -27 27 -42 34 -72 34 -22 -1 -49 -6 -62 -13z"/>
<path d="M0 2150 l0 -110 40 0 c76 0 120 42 120 115 0 29 -8 45 -34 71 -29 29
-41 34 -80 34 l-46 0 0 -110z"/>
<path d="M1220 2245 c0 -8 2 -15 4 -15 2 0 6 7 10 15 3 8 1 15 -4 15 -6 0 -10
-7 -10 -15z"/>
<path d="M1162 2196 c-63 -54 -73 -75 -61 -135 10 -45 40 -74 92 -86 36 -9 42
-15 44 -39 3 -35 11 -45 23 -26 6 9 5 18 -3 23 -9 7 -9 10 0 13 7 3 10 11 7
18 -3 7 9 28 26 45 51 55 40 135 -23 175 -31 19 -89 26 -105 12z"/>
<path d="M580 2173 c-31 -12 -62 -56 -63 -90 -1 -18 -5 -33 -9 -33 -4 0 -8 5
-8 10 0 17 -63 50 -93 50 -126 0 -156 -185 -37 -221 71 -21 136 15 146 82 l7
40 22 -21 c31 -29 78 -40 118 -29 126 34 95 221 -35 218 -18 0 -40 -3 -48 -6z"/>
<path d="M780 2164 c0 -17 58 -86 64 -76 3 5 -10 26 -29 48 -19 21 -35 34 -35
28z"/>
<path d="M1025 2081 c-3 -5 -1 -12 5 -16 5 -3 10 1 10 9 0 18 -6 21 -15 7z"/>
<path d="M2010 2072 c-20 -9 -42 -32 -52 -51 -9 -18 -28 -46 -42 -60 -33 -34
-33 -48 -1 -27 13 9 26 16 28 16 4 0 15 -32 16 -46 0 -13 73 -44 100 -44 63 0
104 36 116 101 8 44 -23 95 -70 115 -44 18 -53 18 -95 -4z"/>
<path d="M2405 2081 c-81 -36 -96 -151 -25 -198 38 -27 79 -29 120 -8 59 31
77 95 43 158 -9 18 -17 34 -16 37 1 3 -6 6 -15 7 -9 1 -33 4 -52 7 -19 3 -44
2 -55 -3z"/>
<path d="M850 2055 c0 -8 -8 -15 -18 -15 -22 0 -67 -45 -80 -81 -8 -19 -6 -36
8 -67 51 -113 219 -86 220 35 l1 28 18 -22 c31 -37 32 -13 2 31 -17 24 -47 51
-75 64 -25 13 -48 27 -51 33 -9 14 -25 11 -25 -6z"/>
<path d="M1476 2054 c-4 -10 -1 -14 6 -12 15 5 23 28 10 28 -5 0 -13 -7 -16
-16z"/>
<path d="M1465 2003 c-3 -10 -8 -34 -11 -53 -6 -47 12 -27 24 28 10 41 1 59
-13 25z"/>
<path d="M2195 2010 c-3 -5 1 -10 9 -10 9 0 16 5 16 10 0 6 -4 10 -9 10 -6 0
-13 -4 -16 -10z"/>
<path d="M706 1962 c-3 -6 -1 -14 5 -17 14 -9 20 -2 10 14 -6 8 -11 9 -15 3z"/>
<path d="M1397 1950 c-3 -11 -1 -20 4 -20 5 0 9 9 9 20 0 11 -2 20 -4 20 -2 0
-6 -9 -9 -20z"/>
<path d="M1760 1920 c-13 -8 -12 -10 3 -10 9 0 17 5 17 10 0 12 -1 12 -20 0z"/>
<path d="M1389 1898 c-1 -13 -1 -29 0 -35 2 -17 -20 -16 -55 2 -16 8 -39 15
-51 15 -52 0 -113 -62 -113 -116 0 -56 51 -114 100 -114 22 0 27 -6 36 -45 6
-25 7 -45 3 -45 -4 0 -15 -3 -25 -7 -10 -4 -15 -2 -11 3 3 5 -3 10 -13 10 -13
0 -16 -4 -10 -12 6 -6 7 -14 4 -17 -4 -3 -28 12 -55 35 -41 35 -49 47 -49 76
0 43 -34 100 -67 113 -13 5 -41 9 -62 9 -24 0 -48 8 -65 21 -36 29 -54 14 -23
-20 25 -25 25 -26 7 -48 -10 -13 -23 -23 -29 -23 -6 0 -11 -5 -11 -11 0 -5 -5
-7 -10 -4 -6 4 -8 10 -5 15 3 5 -14 20 -37 34 -30 18 -44 22 -50 14 -10 -17 0
-28 17 -21 8 3 15 0 15 -6 0 -5 20 -22 45 -37 25 -14 44 -29 41 -31 -3 -3 1
-21 9 -40 l15 -35 -30 7 c-17 4 -30 4 -30 0 0 -7 67 -37 90 -40 8 -1 23 -5 33
-9 11 -6 32 -2 57 9 l38 17 56 -31 c84 -49 87 -65 6 -36 -24 8 -45 13 -48 10
-3 -3 1 -5 9 -5 12 0 11 -2 -1 -10 -11 -8 -7 -9 15 -4 23 4 27 3 15 -5 -12 -9
-9 -10 14 -5 21 5 27 4 22 -5 -4 -6 -1 -11 8 -11 30 0 4 -30 -28 -31 -29 -2
-28 -2 9 -9 22 -4 36 -8 30 -9 -5 -1 -54 -7 -107 -14 -88 -12 -99 -12 -130 4
-57 31 -119 19 -160 -30 -25 -30 -64 -28 -72 3 -14 57 -82 84 -150 61 -22 -8
-68 -16 -101 -17 l-60 -2 58 -3 c61 -4 62 -5 48 -31 -6 -9 -12 -29 -15 -43 -5
-23 -12 -27 -53 -33 -35 -4 -49 -3 -52 6 -2 7 -19 28 -37 46 -55 55 -144 38
-179 -34 -36 -75 15 -156 99 -158 59 -1 98 27 110 80 l9 40 53 2 c47 2 55 -1
70 -23 9 -13 31 -30 49 -37 19 -6 32 -15 29 -20 -3 -4 6 -8 19 -8 30 0 90 24
81 32 -3 4 5 26 19 50 26 48 57 63 57 28 0 -48 28 -90 74 -110 49 -21 58 -19
123 28 31 22 32 25 29 81 l-3 59 56 10 c136 26 141 26 136 3 -2 -12 1 -21 7
-21 5 0 8 -6 5 -14 -4 -9 1 -16 13 -18 16 -2 7 -16 -46 -70 -37 -38 -71 -68
-77 -68 -6 0 -8 -2 -5 -5 2 -2 -40 -51 -94 -107 -93 -97 -99 -101 -123 -90
-49 22 -100 15 -134 -19 -17 -17 -31 -36 -32 -42 0 -7 -2 -19 -4 -28 -1 -9 5
-35 15 -58 11 -23 15 -43 9 -46 -19 -13 -9 -25 12 -14 15 8 24 8 32 0 8 -8 7
-11 -5 -11 -9 0 -28 -14 -42 -31 -69 -82 3 -205 108 -185 38 7 82 51 92 91 9
36 -12 88 -45 110 l-30 19 34 23 c42 28 58 77 43 129 -7 29 -6 39 6 53 9 10
16 23 16 29 0 7 7 12 15 12 8 0 15 4 15 9 0 5 35 46 78 90 42 45 100 107 129
138 51 56 81 68 49 18 -20 -31 -14 -32 14 -3 17 18 22 20 33 8 9 -10 9 -12 0
-6 -8 4 -13 1 -13 -8 0 -10 6 -13 15 -10 8 4 15 10 15 15 0 5 5 9 10 9 6 0 10
-9 10 -20 0 -24 15 -27 24 -4 3 8 2 12 -4 9 -6 -3 -10 -1 -10 4 0 25 51 9 64
-19 3 -8 4 -3 2 13 -4 36 10 35 17 -2 4 -17 15 -35 26 -41 19 -10 20 -9 5 25
-17 40 -8 44 32 13 26 -19 25 -18 -5 15 -71 75 -19 45 98 -59 67 -58 124 -104
126 -102 3 3 -11 17 -31 33 -20 16 -48 40 -63 54 -16 14 -54 48 -85 75 -31 27
-54 51 -52 54 10 9 115 -52 124 -73 9 -19 24 -28 105 -66 15 -7 27 -19 27 -27
0 -9 3 -12 7 -9 3 4 17 0 30 -8 13 -9 28 -13 33 -10 12 7 13 26 3 24 -22 -4
-33 2 -27 14 4 6 4 9 -1 5 -9 -9 -35 9 -35 24 0 6 9 8 20 5 11 -3 17 -1 14 4
-3 5 1 12 9 15 8 3 20 22 27 44 7 21 23 44 36 51 28 15 31 29 6 29 -10 0 -29
8 -42 18 l-25 17 35 6 35 6 -40 2 c-22 1 -49 8 -59 16 -11 8 -31 15 -45 15
-31 0 -91 -21 -91 -32 0 -4 -7 -8 -16 -8 -11 0 -15 -6 -11 -19 5 -21 -9 -51
-24 -51 -6 0 -7 5 -4 10 3 6 1 10 -4 10 -6 0 -11 7 -11 15 0 8 -5 15 -12 15
-6 0 -3 7 8 15 18 14 17 14 -16 15 -26 0 -31 3 -20 10 10 6 11 10 3 10 -7 0
-13 7 -13 16 0 12 9 14 48 10 26 -3 38 -2 27 2 -11 4 -21 13 -23 20 -3 15 25
16 30 1 2 -7 22 -8 58 -3 48 6 52 8 30 17 -14 5 -33 13 -42 18 -13 7 -18 5
-18 -6 0 -8 -7 -15 -16 -15 -8 0 -12 5 -9 10 8 12 9 13 -47 -4 -59 -18 -69 -8
-21 21 43 26 37 31 -8 7 -59 -30 -37 -8 54 53 51 34 102 71 114 82 12 12 25
21 28 21 4 0 15 10 25 22 20 25 16 45 -5 28 -19 -16 -32 -6 -40 29 -3 15 -21
42 -40 59 -30 26 -40 29 -77 25 -64 -8 -108 -57 -108 -120 0 -41 -50 -155 -64
-145 -6 5 -22 7 -36 6 -29 -2 -40 11 -40 48 0 17 7 31 20 38 18 10 20 8 20
-21 0 -42 9 -33 12 12 1 18 8 43 15 55 7 12 13 43 13 70 0 27 1 70 4 97 2 26
0 47 -5 47 -5 0 -10 -10 -10 -22z m82 -271 c-13 -20 -13 -21 2 -8 12 9 21 10
30 4 6 -6 24 -13 40 -17 23 -5 25 -9 15 -20 -7 -8 -17 -12 -22 -9 -4 3 -11 2
-15 -3 -9 -13 -58 -44 -70 -44 -5 0 4 14 20 31 30 32 41 61 14 39 -8 -6 -19
-9 -25 -5 -5 3 -13 -1 -16 -9 -3 -9 -10 -16 -15 -16 -4 0 2 23 13 50 15 36 24
48 32 40 7 -7 7 -17 -3 -33z m-329 -45 c-10 -3 -10 -7 -2 -17 9 -11 7 -12 -9
-8 -12 3 -21 8 -21 12 0 14 23 30 34 24 6 -4 6 -8 -2 -11z m78 -52 c8 -5 11
-12 8 -16 -10 -9 -38 3 -38 16 0 12 10 13 30 0z m317 -66 c-3 -3 -12 -4 -19
-1 -8 3 -5 6 6 6 11 1 17 -2 13 -5z m-37 -84 c0 -5 -5 -10 -11 -10 -5 0 -7 5
-4 10 3 6 8 10 11 10 2 0 4 -4 4 -10z m340 -50 c0 -5 -4 -10 -10 -10 -5 0 -10
5 -10 10 0 6 5 10 10 10 6 0 10 -4 10 -10z m-281 -16 c18 -9 30 -18 27 -21 -3
-3 -20 4 -38 16 -39 25 -34 27 11 5z"/>
<path d="M1080 1898 c0 -22 31 -88 41 -88 4 0 11 5 14 10 3 6 1 10 -4 10 -6 0
-11 4 -11 10 0 5 -9 24 -20 42 -13 21 -20 27 -20 16z"/>
<path d="M1787 1890 c-42 -33 -56 -99 -32 -153 7 -18 63 -53 78 -49 4 1 7 -3
7 -8 0 -5 7 -10 15 -10 20 0 85 32 85 42 0 4 9 8 20 8 22 0 27 16 8 23 -7 2
11 15 39 28 29 13 53 27 53 32 0 11 -22 8 -50 -8 -35 -20 -40 -19 -40 11 0 15
-9 43 -21 64 -20 36 -23 37 -78 39 -45 1 -64 -3 -84 -19z"/>
<path d="M0 1785 c0 -129 4 -134 67 -95 54 33 66 71 42 146 -6 20 -21 36 -45
47 -63 31 -64 30 -64 -98z"/>
<path d="M1036 1885 c4 -8 8 -15 10 -15 2 0 4 7 4 15 0 8 -4 15 -10 15 -5 0
-7 -7 -4 -15z"/>
<path d="M1708 1865 c-42 -49 -34 -66 9 -20 20 22 36 42 36 45 -4 14 -21 5
-45 -25z"/>
<path d="M2681 1886 c-33 -18 -50 -53 -51 -103 0 -33 6 -47 31 -73 28 -28 37
-31 83 -28 l51 3 0 105 0 105 -45 2 c-25 2 -56 -3 -69 -11z"/>
<path d="M1612 1871 c-11 -7 -11 -9 1 -14 16 -6 27 0 27 15 0 10 -11 10 -28
-1z"/>
<path d="M2077 1833 c-4 -3 -7 -11 -7 -17 0 -6 5 -5 12 2 6 6 9 14 7 17 -3 3
-9 2 -12 -2z"/>
<path d="M625 1814 c37 -28 74 -44 80 -34 3 5 -12 18 -34 30 -48 24 -75 26
-46 4z"/>
<path d="M2221 1807 c-41 -14 -70 -51 -78 -98 -3 -19 -9 -37 -15 -40 -5 -3 1
-9 13 -12 13 -4 20 -9 16 -13 -14 -14 57 -54 97 -55 45 -1 41 -4 -17 -14 -21
-3 -35 -10 -32 -14 6 -11 83 3 98 18 6 6 8 11 5 11 -3 0 9 15 28 34 19 19 34
41 34 50 0 9 6 16 13 16 8 0 9 3 1 8 -6 4 -14 19 -18 34 -7 31 -50 78 -71 78
-7 0 -19 2 -27 4 -7 3 -28 0 -47 -7z"/>
<path d="M522 1790 c-18 -11 -35 -27 -38 -35 -4 -10 -15 -13 -37 -9 l-32 5 28
-16 c32 -18 39 -65 10 -66 -14 0 -13 -2 5 -9 12 -5 22 -16 22 -23 0 -8 19 -25
43 -37 36 -19 50 -21 83 -14 21 4 49 7 62 6 12 -2 22 2 22 8 0 5 -5 10 -10 10
-7 0 -7 7 0 20 8 15 17 19 33 14 20 -5 20 -5 6 7 -9 8 -19 32 -22 54 -13 83
-106 129 -175 85z"/>
<path d="M1136 1785 c4 -8 10 -15 15 -15 4 0 6 7 3 15 -4 8 -10 15 -15 15 -4
0 -6 -7 -3 -15z"/>
<path d="M726 1773 c-11 -11 -6 -23 9 -23 8 0 15 4 15 9 0 13 -16 22 -24 14z"/>
<path d="M232 1709 c-58 -17 -92 -112 -62 -170 25 -45 123 -65 168 -33 72 50
60 176 -19 199 -45 13 -54 13 -87 4z"/>
<path d="M1898 1650 c-35 -10 -77 -42 -78 -58 0 -8 -18 -21 -40 -29 -44 -18
-44 -38 1 -28 29 7 42 -8 17 -18 -8 -3 -7 -6 4 -6 9 -1 19 -10 23 -21 11 -33
54 -60 98 -60 77 0 125 54 118 132 -2 22 3 29 23 34 42 10 30 27 -14 19 -22
-4 -40 -3 -40 2 0 12 -41 36 -65 38 -11 1 -32 -1 -47 -5z"/>
<path d="M398 1643 c7 -3 16 -2 19 1 4 3 -2 6 -13 5 -11 0 -14 -3 -6 -6z"/>
<path d="M2474 1630 c-22 -11 -41 -26 -42 -33 -17 -108 -12 -125 41 -157 61
-38 132 -18 162 46 22 46 14 92 -24 128 -38 37 -85 42 -137 16z"/>
<path d="M2105 1620 c3 -5 10 -10 16 -10 5 0 9 5 9 10 0 6 -7 10 -16 10 -8 0
-12 -4 -9 -10z"/>
<path d="M840 1600 c8 -5 20 -10 25 -10 6 0 3 5 -5 10 -8 5 -19 10 -25 10 -5
0 -3 -5 5 -10z"/>
<path d="M706 1584 c-4 -10 -1 -14 6 -12 15 5 23 28 10 28 -5 0 -13 -7 -16
-16z"/>
<path d="M418 1573 c7 -3 16 -2 19 1 4 3 -2 6 -13 5 -11 0 -14 -3 -6 -6z"/>
<path d="M778 1573 c7 -3 16 -2 19 1 4 3 -2 6 -13 5 -11 0 -14 -3 -6 -6z"/>
<path d="M8 1553 c7 -3 16 -2 19 1 4 3 -2 6 -13 5 -11 0 -14 -3 -6 -6z"/>
<path d="M2138 1553 c7 -3 16 -2 19 1 4 3 -2 6 -13 5 -11 0 -14 -3 -6 -6z"/>
<path d="M888 1543 c7 -3 16 -2 19 1 4 3 -2 6 -13 5 -11 0 -14 -3 -6 -6z"/>
<path d="M1710 1530 c8 -5 20 -10 25 -10 6 0 3 5 -5 10 -8 5 -19 10 -25 10 -5
0 -3 -5 5 -10z"/>
<path d="M720 1521 c0 -11 87 -27 97 -17 10 10 0 14 -50 21 -29 4 -47 3 -47
-4z"/>
<path d="M1683 1519 c9 -5 17 -17 17 -24 0 -9 9 -15 21 -15 18 0 17 3 -9 25
-17 14 -34 25 -38 25 -5 0 -1 -5 9 -11z"/>
<path d="M0 1405 l0 -116 30 16 c33 17 70 69 70 98 0 47 -57 117 -95 117 -3 0
-5 -52 -5 -115z"/>
<path d="M410 1510 c0 -5 8 -10 18 -10 9 -1 34 -3 55 -6 45 -7 50 11 6 20 -46
9 -79 7 -79 -4z"/>
<path d="M1640 1516 c0 -3 9 -10 20 -16 11 -6 20 -8 20 -6 0 3 -9 10 -20 16
-11 6 -20 8 -20 6z"/>
<path d="M540 1500 c0 -5 5 -10 10 -10 6 0 10 5 10 10 0 6 -4 10 -10 10 -5 0
-10 -4 -10 -10z"/>
<path d="M840 1500 c0 -5 7 -10 15 -10 8 0 15 5 15 10 0 6 -7 10 -15 10 -8 0
-15 -4 -15 -10z"/>
<path d="M1760 1500 c8 -5 20 -10 25 -10 6 0 3 5 -5 10 -8 5 -19 10 -25 10 -5
0 -3 -5 5 -10z"/>
<path d="M598 1493 c6 -2 18 -2 25 0 6 3 1 5 -13 5 -14 0 -19 -2 -12 -5z"/>
<path d="M908 1493 c7 -3 16 -2 19 1 4 3 -2 6 -13 5 -11 0 -14 -3 -6 -6z"/>
<path d="M2776 1478 c-8 -13 -17 -33 -20 -44 -7 -24 20 -104 35 -104 5 0 9 38
9 85 0 47 -2 85 -5 85 -2 0 -11 -10 -19 -22z"/>
<path d="M703 1483 c9 -2 23 -2 30 0 6 3 -1 5 -18 5 -16 0 -22 -2 -12 -5z"/>
<path d="M808 1473 c6 -2 18 -2 25 0 6 3 1 5 -13 5 -14 0 -19 -2 -12 -5z"/>
<path d="M908 1463 c6 -2 18 -2 25 0 6 3 1 5 -13 5 -14 0 -19 -2 -12 -5z"/>
<path d="M1088 1463 c7 -3 16 -2 19 1 4 3 -2 6 -13 5 -11 0 -14 -3 -6 -6z"/>
<path d="M1773 1463 c9 -2 23 -2 30 0 6 3 -1 5 -18 5 -16 0 -22 -2 -12 -5z"/>
<path d="M1018 1453 c6 -2 18 -2 25 0 6 3 1 5 -13 5 -14 0 -19 -2 -12 -5z"/>
<path d="M1130 1450 l-25 -8 27 -1 c15 -1 30 4 33 9 7 11 0 11 -35 0z"/>
<path d="M1668 1453 c6 -2 18 -2 25 0 6 3 1 5 -13 5 -14 0 -19 -2 -12 -5z"/>
<path d="M2050 1420 c0 -12 97 -14 104 -2 3 5 -19 10 -49 11 -32 1 -55 -3 -55
-9z"/>
<path d="M2170 1420 c0 -5 4 -10 9 -10 6 0 13 5 16 10 3 6 -1 10 -9 10 -9 0
-16 -4 -16 -10z"/>
<path d="M1968 1383 c12 -2 30 -2 40 0 9 3 -1 5 -23 4 -22 0 -30 -2 -17 -4z"/>
<path d="M2248 1375 c-14 -8 -32 -28 -40 -45 -8 -18 -21 -30 -33 -31 -18 -1
-18 -2 -2 -6 13 -3 17 -11 14 -23 -3 -11 -1 -20 3 -22 5 -2 10 -10 12 -17 5
-25 55 -62 91 -68 21 -3 45 1 65 11 59 30 74 77 51 155 -9 30 -18 39 -50 49
-50 15 -78 15 -111 -3z"/>
<path d="M1145 1374 c-64 -14 -105 -28 -105 -36 0 -6 13 -6 33 -2 17 5 44 8
59 9 14 0 24 3 21 8 -7 11 22 8 34 -4 9 -9 10 -7 6 10 -5 21 -10 22 -48 15z"/>
<path d="M1558 1373 c7 -3 16 -2 19 1 4 3 -2 6 -13 5 -11 0 -14 -3 -6 -6z"/>
<path d="M2133 1373 c9 -2 25 -2 35 0 9 3 1 5 -18 5 -19 0 -27 -2 -17 -5z"/>
<path d="M2478 1353 c12 -2 30 -2 40 0 9 3 -1 5 -23 4 -22 0 -30 -2 -17 -4z"/>
<path d="M1890 1341 c0 -5 7 -12 16 -15 14 -5 15 -4 4 9 -14 17 -20 19 -20 6z"/>
<path d="M2638 1343 c12 -2 32 -2 45 0 12 2 2 4 -23 4 -25 0 -35 -2 -22 -4z"/>
<path d="M1936 1301 c-6 -10 30 -23 105 -37 18 -4 43 -13 54 -19 27 -17 95
-28 95 -17 0 6 -17 13 -37 17 -33 6 -35 9 -18 16 14 6 9 7 -16 3 -29 -5 -38
-2 -43 12 -6 15 -9 16 -16 5 -7 -12 -11 -11 -25 2 -9 10 -24 17 -33 17 -9 0
-27 3 -38 6 -12 3 -25 1 -28 -5z"/>
<path d="M2108 1303 c7 -3 16 -2 19 1 4 3 -2 6 -13 5 -11 0 -14 -3 -6 -6z"/>
<path d="M2593 1260 c-58 -35 -73 -98 -37 -159 34 -58 110 -68 165 -23 36 29
41 39 41 88 0 42 -17 71 -55 94 -41 25 -74 25 -114 0z"/>
<path d="M735 1240 c3 -5 10 -10 16 -10 5 0 9 5 9 10 0 6 -7 10 -16 10 -8 0
-12 -4 -9 -10z"/>
<path d="M1215 1230 c-3 -6 1 -7 9 -4 18 7 21 14 7 14 -6 0 -13 -4 -16 -10z"/>
<path d="M1305 1221 c-11 -5 -25 -7 -30 -4 -17 6 -54 -78 -58 -132 -3 -27 -8
-58 -12 -67 -4 -11 -3 -18 5 -18 6 0 14 9 17 20 6 24 16 25 33 5 7 -8 30 -20
51 -25 22 -6 39 -15 39 -20 0 -6 7 -10 16 -10 8 0 12 5 9 10 -3 6 -1 10 6 10
7 0 9 3 6 7 -4 3 2 12 12 20 17 12 23 9 51 -19 18 -18 37 -45 42 -60 12 -35
30 -37 24 -3 -4 20 -1 25 16 25 33 0 89 32 101 57 7 17 16 22 30 17 11 -3 18
-2 15 2 -42 93 -64 127 -92 141 -17 8 -42 25 -56 37 l-25 21 19 -22 c19 -23
19 -23 -5 -23 -14 0 -35 -7 -47 -16 -27 -19 -25 -20 -46 26 -9 19 -14 27 -11
18 5 -22 5 -22 -31 -3 -32 16 -49 18 -79 6z"/>
<path d="M1816 1194 c-3 -8 -2 -13 3 -9 5 3 15 -1 23 -8 7 -8 19 -12 27 -9 8
3 11 0 8 -5 -5 -8 17 -10 43 -4 7 2 -24 20 -64 36 -30 13 -35 13 -40 -1z"/>
<path d="M2438 1203 c7 -3 16 -2 19 1 4 3 -2 6 -13 5 -11 0 -14 -3 -6 -6z"/>
<path d="M2488 1193 c7 -3 16 -2 19 1 4 3 -2 6 -13 5 -11 0 -14 -3 -6 -6z"/>
<path d="M823 1158 c-23 -12 -40 -25 -37 -29 6 -10 94 31 94 43 0 12 -11 10
-57 -14z"/>
<path d="M1940 1159 c-29 -12 -61 -44 -53 -53 4 -3 1 -6 -6 -6 -7 0 -10 -4 -6
-9 3 -5 1 -12 -4 -15 -10 -7 -1 -49 18 -85 26 -48 125 -68 167 -33 85 71 52
189 -57 206 -19 3 -45 1 -59 -5z"/>
<path d="M4 1137 c-3 -8 -3 -56 -2 -108 l3 -94 48 -3 c43 -3 51 0 82 31 29 29
35 42 35 77 0 34 -6 48 -34 76 -29 29 -41 34 -80 34 -30 0 -49 -5 -52 -13z"/>
<path d="M1820 1126 c0 -9 5 -16 10 -16 6 0 10 4 10 9 0 6 -4 13 -10 16 -5 3
-10 -1 -10 -9z"/>
<path d="M600 1110 c0 -5 4 -10 9 -10 6 0 13 5 16 10 3 6 -1 10 -9 10 -9 0
-16 -4 -16 -10z"/>
<path d="M533 1088 c-24 -10 -43 -23 -43 -28 0 -10 77 16 93 30 19 17 -11 16
-50 -2z"/>
<path d="M1102 1084 c-7 -8 -8 -14 -2 -14 5 0 10 -4 10 -10 0 -5 -6 -7 -13 -5
-7 3 -24 -13 -40 -37 -15 -24 -23 -44 -17 -46 20 -7 98 104 84 118 -5 5 -15 2
-22 -6z"/>
<path d="M1739 1077 c26 -28 31 -32 31 -19 0 4 -13 16 -28 26 l-27 19 24 -26z"/>
<path d="M2778 1093 c7 -3 16 -2 19 1 4 3 -2 6 -13 5 -11 0 -14 -3 -6 -6z"/>
<path d="M2162 1078 c5 -15 88 -51 88 -38 0 10 -23 24 -65 40 -20 8 -26 7 -23
-2z"/>
<path d="M785 1060 c-3 -5 1 -10 9 -10 9 0 16 5 16 10 0 6 -4 10 -9 10 -6 0
-13 -4 -16 -10z"/>
<path d="M2340 1033 c-14 -9 -28 -23 -33 -29 -4 -7 -13 -12 -20 -10 -6 1 -9 1
-4 -1 4 -3 7 -12 7 -20 0 -14 -3 -14 -20 2 -11 10 -17 22 -14 26 3 5 -3 6 -12
2 -10 -4 -15 -2 -11 3 3 6 -15 9 -42 9 -86 0 -141 -61 -121 -134 26 -96 139
-122 202 -47 9 12 17 27 18 34 0 17 17 15 24 -3 3 -9 22 -23 43 -31 55 -24
113 -5 142 46 25 45 26 61 5 106 -29 60 -111 83 -164 47z"/>
<path d="M346 1029 c-71 -20 -105 -94 -71 -158 22 -43 53 -61 105 -61 67 0
101 31 107 97 5 45 2 54 -23 82 -34 36 -77 51 -118 40z"/>
<path d="M720 1019 c-44 -26 -45 -28 -37 -35 6 -6 97 42 97 51 0 11 -27 3 -60
-16z"/>
<path d="M1770 1035 c0 -5 31 -35 65 -63 6 -5 16 -7 23 -4 9 3 0 16 -23 38
-33 30 -65 44 -65 29z"/>
<path d="M2190 1030 c8 -5 20 -10 25 -10 6 0 3 5 -5 10 -8 5 -19 10 -25 10 -5
0 -3 -5 5 -10z"/>
<path d="M1680 1011 c0 -6 5 -13 10 -16 6 -3 10 1 10 9 0 9 -4 16 -10 16 -5 0
-10 -4 -10 -9z"/>
<path d="M1286 954 c-4 -10 -1 -14 6 -12 15 5 23 28 10 28 -5 0 -13 -7 -16
-16z"/>
<path d="M1871 961 c-7 -5 -10 -14 -7 -20 11 -18 25 -13 23 9 -1 11 -1 20 -2
20 0 0 -6 -4 -14 -9z"/>
<path d="M1145 950 c-3 -5 -1 -10 4 -10 6 0 11 5 11 10 0 6 -2 10 -4 10 -3 0
-8 -4 -11 -10z"/>
<path d="M1630 900 c11 -22 20 -59 20 -84 0 -77 72 -131 146 -108 32 9 33 9
40 -22 20 -96 140 -120 202 -41 35 44 30 99 -13 142 -34 34 -38 35 -90 31 -49
-4 -55 -3 -55 15 0 11 -18 37 -40 59 -37 37 -43 40 -82 35 -22 -3 -54 -15 -69
-26 l-28 -21 -16 30 c-9 16 -20 30 -25 30 -6 0 -1 -18 10 -40z"/>
<path d="M1900 933 c0 -9 105 -103 114 -103 3 0 6 7 6 16 0 11 -5 14 -16 10
-12 -5 -15 -2 -10 11 4 10 4 14 1 11 -4 -4 -20 9 -37 28 -27 31 -58 45 -58 27z"/>
<path d="M650 920 c0 -5 5 -10 10 -10 6 0 10 5 10 10 0 6 -4 10 -10 10 -5 0
-10 -4 -10 -10z"/>
<path d="M1275 879 c-6 -45 -2 -70 9 -58 11 11 18 109 8 109 -5 0 -13 -23 -17
-51z"/>
<path d="M1121 897 c-11 -20 -32 -33 -84 -51 -10 -3 -15 -11 -12 -16 4 -6 -4
-21 -17 -33 -13 -12 -25 -26 -27 -32 -2 -5 -6 -16 -9 -23 -9 -25 8 -24 19 2
16 35 25 33 33 -7 3 -19 17 -44 31 -57 13 -13 22 -26 20 -30 -8 -12 88 2 118
17 37 19 61 71 53 115 -7 38 -74 107 -96 100 -9 -3 -11 2 -7 17 7 28 -6 27
-22 -2z"/>
<path d="M600 891 c-36 -23 -53 -41 -47 -48 3 -3 25 8 47 25 43 32 43 52 0 23z"/>
<path d="M1506 885 c4 -8 10 -15 15 -15 5 0 9 7 9 15 0 8 -7 15 -15 15 -9 0
-12 -6 -9 -15z"/>
<path d="M1455 858 c11 -54 16 -68 25 -68 4 0 4 17 -1 38 -4 20 -8 38 -9 40 0
1 0 7 0 12 0 6 -5 10 -11 10 -7 0 -8 -12 -4 -32z"/>
<path d="M1531 855 c1 -19 18 -51 18 -35 0 8 -4 22 -9 30 -5 8 -9 11 -9 5z"/>
<path d="M2660 839 c-50 -20 -70 -49 -70 -102 0 -42 5 -54 34 -83 27 -27 42
-34 73 -34 36 0 78 20 95 44 12 18 8 130 -5 147 -28 37 -78 47 -127 28z"/>
<path d="M1330 797 c-49 -38 -63 -102 -36 -156 18 -33 54 -51 106 -51 34 0 40
-3 41 -22 1 -13 2 -27 4 -33 1 -5 3 -16 3 -22 1 -7 6 -13 11 -13 5 0 7 22 4
49 -4 40 0 54 21 86 58 85 9 175 -96 175 -23 0 -50 -6 -58 -13z"/>
<path d="M1561 764 c0 -11 3 -14 6 -6 3 7 2 16 -1 19 -3 4 -6 -2 -5 -13z"/>
<path d="M103 740 c-22 -13 -36 -32 -44 -61 -11 -37 -11 -46 7 -78 23 -44 81
-75 123 -66 38 8 79 49 89 89 26 97 -85 171 -175 116z"/>
<path d="M663 708 c-39 -38 -44 -41 -68 -30 -49 23 -94 15 -131 -22 -29 -29
-34 -41 -34 -79 0 -56 27 -92 80 -108 52 -16 107 10 134 64 17 37 18 40 1 84
l-17 45 43 44 c24 24 41 44 38 44 -2 0 -23 -19 -46 -42z"/>
<path d="M1570 732 c0 -5 9 -35 19 -68 l20 -59 -34 -27 c-39 -33 -51 -74 -35
-123 17 -50 53 -75 110 -75 42 0 52 4 79 35 63 72 20 185 -69 185 -11 0 -20 5
-20 10 0 6 -7 10 -15 10 -8 0 -15 5 -15 10 0 6 4 10 9 10 5 0 0 23 -12 50 -19
44 -37 65 -37 42z"/>
<path d="M1760 674 c0 -19 40 -84 53 -84 11 0 9 7 -13 50 -23 44 -40 59 -40
34z"/>
<path d="M2239 674 c-78 -32 -77 -158 1 -199 40 -20 79 -19 118 5 74 45 68
156 -12 194 -41 19 -60 20 -107 0z"/>
<path d="M1055 603 c-5 -10 -9 -22 -11 -28 -16 -53 -16 -58 -7 -52 14 9 44 97
33 97 -4 0 -11 -8 -15 -17z"/>
<path d="M1243 585 c0 -8 4 -15 9 -15 4 0 8 7 8 15 0 8 -4 15 -8 15 -5 0 -9
-7 -9 -15z"/>
<path d="M1820 565 c0 -8 5 -15 10 -15 6 0 10 7 10 15 0 8 -4 15 -10 15 -5 0
-10 -7 -10 -15z"/>
<path d="M1237 530 c4 -16 0 -20 -18 -20 -31 0 -84 -33 -99 -61 -19 -34 -6
-97 26 -130 36 -38 81 -46 128 -24 82 39 89 144 14 197 -21 14 -32 29 -30 41
2 10 -3 17 -11 17 -10 0 -13 -7 -10 -20z"/>
<path d="M857 494 c-39 -21 -68 -87 -56 -127 13 -46 50 -78 96 -84 119 -16
182 130 87 201 -35 25 -92 30 -127 10z"/>
<path d="M2504 471 c-37 -22 -59 -78 -49 -119 9 -38 53 -81 91 -88 42 -8 95
17 117 55 61 103 -56 215 -159 152z"/>
<path d="M1455 471 c-3 -5 -1 -12 5 -16 5 -3 10 1 10 9 0 18 -6 21 -15 7z"/>
<path d="M1891 444 c-32 -23 -53 -77 -45 -120 9 -51 54 -84 114 -84 42 0 51 4
79 35 45 51 44 104 -3 151 -28 28 -41 34 -78 34 -24 0 -54 -7 -67 -16z"/>
<path d="M2774 384 c-5 -33 -2 -55 9 -78 16 -31 16 -31 16 47 1 85 -14 103
-25 31z"/>
<path d="M214 369 c-51 -14 -79 -53 -79 -111 0 -43 4 -53 33 -79 37 -34 102
-40 140 -13 26 18 52 65 52 94 0 37 -30 88 -58 98 -48 18 -57 19 -88 11z"/>
<path d="M1531 335 c-42 -36 -56 -84 -38 -127 31 -73 105 -98 167 -56 73 50
74 145 1 186 -51 29 -92 28 -130 -3z"/>
<path d="M2182 284 c-12 -8 -29 -28 -37 -44 -49 -94 42 -197 138 -156 70 29
96 103 58 164 -33 51 -112 69 -159 36z"/>
<path d="M625 280 c-28 -11 -45 -33 -60 -77 -12 -33 -11 -42 6 -76 40 -77 130
-87 188 -21 37 41 40 85 12 128 -33 50 -92 69 -146 46z"/>
<path d="M954 176 c-27 -27 -34 -42 -34 -73 0 -36 20 -78 44 -95 6 -4 39 -8
73 -8 55 0 64 3 82 27 43 54 39 108 -11 155 -24 22 -39 28 -75 28 -38 0 -50
-5 -79 -34z"/>
<path d="M2548 114 c-30 -16 -58 -61 -58 -94 0 -19 6 -20 115 -20 l115 0 0 31
c0 47 -56 99 -106 99 -22 -1 -51 -7 -66 -16z"/>
<path d="M1314 71 c-12 -5 -31 -22 -44 -38 l-22 -28 107 -3 c59 -1 110 0 113
3 3 3 -8 19 -24 36 -33 33 -92 46 -130 30z"/>
<path d="M1814 36 c-62 -27 -50 -36 46 -36 97 0 108 9 44 36 -41 17 -50 17
-90 0z"/>
</g>
</svg>
