<svg xmlns="http://www.w3.org/2000/svg" viewBox="0 0 497.66 57.03"><g id="Layer_2" data-name="Layer 2"><g id="Layer_1-2" data-name="Layer 1"><path d="M19.1,38.83H43.73L35.29,54.07a4.36,4.36,0,0,1-7.61,0Z" transform="translate(0 -2.63)" style="fill:#83ba41"/><path d="M52.85,38.83h24.6l-8,14.37a4.89,4.89,0,0,1-8.54,0Z" transform="translate(0 -2.63)" style="fill:#276fb8"/><path d="M26.65,3.43H1.07A1.06,1.06,0,0,0,.12,5L15.8,32.91H43.19l-15-26.79Z" transform="translate(0 -2.63)" style="fill:#83ba41"/><path d="M94.34,3.43H69.67L68.2,6.09,53.33,32.91H80.71L95.76,5.82A1.6,1.6,0,0,0,94.34,3.43Z" transform="translate(0 -2.63)" style="fill:#276fb8"/><polygon points="48.26 28.02 63.36 0.79 32.98 0.79 48.26 28.02" style="fill:#f18421"/><path d="M110.08,41.57a.85.85,0,0,1,.2-.55l0-.06a.77.77,0,0,1,.39-.11c.24,0,.49.18.77.55a13.32,13.32,0,0,0,4.8,4.2A15.06,15.06,0,0,0,123.17,47a17.34,17.34,0,0,0,6.18-1,9.22,9.22,0,0,0,4.36-3.32,9.86,9.86,0,0,0,1.63-5.84,6.5,6.5,0,0,0-1.89-4.9,11.23,11.23,0,0,0-4.24-2.62,55.19,55.19,0,0,0-6-1.61,29.08,29.08,0,0,1-6.93-2.19,10.11,10.11,0,0,1-4.06-3.31,8.41,8.41,0,0,1-1.36-4.87,10.38,10.38,0,0,1,1.58-5.8,9.77,9.77,0,0,1,4.48-3.66,17.39,17.39,0,0,1,6.88-1.25,15.82,15.82,0,0,1,6.08,1.06,14.18,14.18,0,0,1,4.93,3.62.88.88,0,0,1,.23.63.93.93,0,0,1-.15.52l-.05.06a.79.79,0,0,1-.44.14.78.78,0,0,1-.41-.14,4.06,4.06,0,0,1-.48-.43,18.73,18.73,0,0,0-2.8-2.27,9.11,9.11,0,0,0-2.88-1.2,18.25,18.25,0,0,0-4-.38,17,17,0,0,0-5.6.89A9.26,9.26,0,0,0,114,12a8.09,8.09,0,0,0-1.67,5.3,6.53,6.53,0,0,0,3.06,5.79,24,24,0,0,0,8.21,3.11,59.65,59.65,0,0,1,6.69,1.85,11.47,11.47,0,0,1,4.54,3.05,8,8,0,0,1,2,5.7A11.59,11.59,0,0,1,135,43.38a10.65,10.65,0,0,1-4.85,3.93,17.81,17.81,0,0,1-7,1.29A16.69,16.69,0,0,1,116,47.15a14.86,14.86,0,0,1-5.57-4.81A1.3,1.3,0,0,1,110.08,41.57Z" transform="translate(0 -2.63)" style="fill:#231f20"/><path d="M156.39,16c.43,0,.64.24.64.72v0a.71.71,0,0,1-.18.47.58.58,0,0,1-.46.22h-6V42.11a5.68,5.68,0,0,0,.84,3.09,2.93,2.93,0,0,0,2.7,1.34h1c.63,0,.95.22.95.66v0a1.23,1.23,0,0,1-.15.51c-.09.2-.31.3-.65.3a12.53,12.53,0,0,1-2.1-.12A4.26,4.26,0,0,1,150,46a6.84,6.84,0,0,1-1-3.79V17.42h-4.17a.64.64,0,0,1-.72-.72.64.64,0,0,1,.72-.72H149V6.71c0-.6.23-.9.67-.9h0c.47,0,.71.3.71.9V16Z" transform="translate(0 -2.63)" style="fill:#231f20"/><path d="M196.66,48.06h0c-.46,0-.7-.32-.7-1V38a18.48,18.48,0,0,1-3.56,5.63,16.69,16.69,0,0,1-5.2,3.84,14,14,0,0,1-14-1.07,18.17,18.17,0,0,1-6-6.62,18.48,18.48,0,0,1-2.27-9,18.74,18.74,0,0,1,2.27-9.06,18.31,18.31,0,0,1,6-6.69,13.84,13.84,0,0,1,13.95-1.09,17,17,0,0,1,5.21,3.89,18.48,18.48,0,0,1,3.57,5.69V13.77a1.26,1.26,0,0,1,.17-.69.59.59,0,0,1,.53-.26h0c.46,0,.69.32.69.95V47.11C197.35,47.74,197.12,48.06,196.66,48.06Zm-2.85-25.6a17.26,17.26,0,0,0-5.59-6.11,12.48,12.48,0,0,0-14.34,0,16.44,16.44,0,0,0-5.46,6.09,17.17,17.17,0,0,0-2.06,8.31A16.82,16.82,0,0,0,168.42,39a16.55,16.55,0,0,0,5.46,6,12.76,12.76,0,0,0,7.18,2.25,13.2,13.2,0,0,0,7.4-2.24,16.07,16.07,0,0,0,5.46-6,17.18,17.18,0,0,0,2-8.24A16.74,16.74,0,0,0,193.81,22.46Z" transform="translate(0 -2.63)" style="fill:#231f20"/><path d="M208.93,12.85h0c.44,0,.66.3.66.89v7.32a10.76,10.76,0,0,1,2.82-4.3,12.52,12.52,0,0,1,4.15-2.6,12.26,12.26,0,0,1,4.36-.85,10.06,10.06,0,0,1,3.74.79A14.06,14.06,0,0,1,228,16c.91.71,1.37,1.29,1.37,1.75a.56.56,0,0,1-.1.35l0,0a.67.67,0,0,1-.56.31.73.73,0,0,1-.54-.26A10.51,10.51,0,0,0,221,14.89a11,11,0,0,0-9.62,5.87,15.7,15.7,0,0,0-1.75,7.83V47.14c0,.61-.23.92-.69.92h0c-.46,0-.69-.31-.69-.92V13.74C208.24,13.15,208.47,12.85,208.93,12.85Z" transform="translate(0 -2.63)" style="fill:#231f20"/><path d="M239.18,7.08h11.94a10.12,10.12,0,0,1,5.69,1.72A12.38,12.38,0,0,1,261,13.45a13.66,13.66,0,0,1,1.54,6.41A13.46,13.46,0,0,1,261,26.22a12,12,0,0,1-4.14,4.62,10.2,10.2,0,0,1-5.71,1.71H239.88V47.14c0,.61-.23.92-.67.92h0c-.46,0-.69-.31-.69-.92V7.85C238.49,7.34,238.72,7.08,239.18,7.08Zm.7,23.86h11.24a9,9,0,0,0,5-1.48,10.22,10.22,0,0,0,3.59-4A12,12,0,0,0,261,19.86a12.33,12.33,0,0,0-1.31-5.65,10.41,10.41,0,0,0-3.59-4.06,9,9,0,0,0-5-1.49H239.88Z" transform="translate(0 -2.63)" style="fill:#231f20"/><path d="M272.36,30.77a17.57,17.57,0,0,0,2,8.23,16.26,16.26,0,0,0,5.37,6.06,13,13,0,0,0,7.35,2.25,13.53,13.53,0,0,0,4.31-.63,12.69,12.69,0,0,0,3.11-1.49,30.29,30.29,0,0,0,2.7-2.16.91.91,0,0,1,.62-.26.48.48,0,0,1,.38.18l.05,0a.64.64,0,0,1,.15.43,1,1,0,0,1-.3.72,18.49,18.49,0,0,1-5,3.42A14.79,14.79,0,0,1,279,46.39a17.39,17.39,0,0,1-5.88-6.59,19,19,0,0,1-2.18-9,19.42,19.42,0,0,1,2.18-9.09A17.73,17.73,0,0,1,279,15a14.32,14.32,0,0,1,16.24.09,18.5,18.5,0,0,1,5.9,6.56,16.78,16.78,0,0,1,2.15,8v.11q0,.78-.72.78h-30.2Zm7.79-14.67a16.06,16.06,0,0,0-5.26,5.42A17.88,17.88,0,0,0,272.44,29h29.43a15.75,15.75,0,0,0-2.18-6.86,17.09,17.09,0,0,0-5.3-5.76,12.85,12.85,0,0,0-14.24-.27Z" transform="translate(0 -2.63)" style="fill:#231f20"/><path d="M313.78,13.09a.63.63,0,0,1,.54-.24h0c.45,0,.67.31.67.92v9.45a17.56,17.56,0,0,1,3.51-5.57,16.18,16.18,0,0,1,5.19-3.75,14.63,14.63,0,0,1,6.13-1.34A14.3,14.3,0,0,1,337.73,15a17.79,17.79,0,0,1,6,6.51A18.23,18.23,0,0,1,346,30.43a20.08,20.08,0,0,1-2.14,9.16A17.52,17.52,0,0,1,338,46.32a14.54,14.54,0,0,1-14.37,1.12,16.09,16.09,0,0,1-5.13-3.88,18.92,18.92,0,0,1-3.5-5.67V58.74c0,.61-.22.92-.67.92h0a.63.63,0,0,1-.54-.24,1.14,1.14,0,0,1-.18-.68v-45A1.14,1.14,0,0,1,313.78,13.09Zm3.14,25.76a15.47,15.47,0,0,0,5.3,6.14,13.45,13.45,0,0,0,7.65,2.26A12.94,12.94,0,0,0,337.23,45a16.05,16.05,0,0,0,5.38-6.16,18,18,0,0,0,2-8.38,16.66,16.66,0,0,0-2.07-8.16,16.22,16.22,0,0,0-5.46-6,13,13,0,0,0-7.2-2.22,13.54,13.54,0,0,0-7.44,2.2A15.73,15.73,0,0,0,317,22.23a17.15,17.15,0,0,0-2,8.2A18.76,18.76,0,0,0,316.92,38.85Z" transform="translate(0 -2.63)" style="fill:#231f20"/><path d="M387.89,47.48a1.08,1.08,0,0,1-.31.45.63.63,0,0,1-.33.13h-.08c-.29,0-.5-.19-.64-.58L371.83,8.2a1.37,1.37,0,0,1-.08-.37.7.7,0,0,1,.23-.55.75.75,0,0,1,.49-.2h.07q.34,0,.54.54L387.2,45.44l14-37.82c.11-.36.3-.54.56-.54h.05a.8.8,0,0,1,.5.2.68.68,0,0,1,.24.55,1.28,1.28,0,0,1-.07.37l-5.77,15.53L404.9,45.5,419,7.62q.18-.54.54-.54h.08a.76.76,0,0,1,.5.21.73.73,0,0,1,.24.56.74.74,0,0,1-.08.35l-14.7,39.28a1.08,1.08,0,0,1-.31.45.62.62,0,0,1-.3.13h-.13a.63.63,0,0,1-.34-.13,1,1,0,0,1-.3-.45L396,25.74Z" transform="translate(0 -2.63)" style="fill:#231f20"/><path d="M424,30.77A17.58,17.58,0,0,0,426,39a16.09,16.09,0,0,0,5.37,6.06,13,13,0,0,0,7.35,2.25,13.47,13.47,0,0,0,4.3-.63,12.35,12.35,0,0,0,3.11-1.49A31.8,31.8,0,0,0,448.81,43a.88.88,0,0,1,.61-.26.51.51,0,0,1,.39.18l.05,0a.64.64,0,0,1,.15.43,1,1,0,0,1-.31.72,18.29,18.29,0,0,1-4.95,3.42,14.81,14.81,0,0,1-14.12-1.18,17.39,17.39,0,0,1-5.88-6.59,19.15,19.15,0,0,1-2.18-9,19.54,19.54,0,0,1,2.18-9.09A17.75,17.75,0,0,1,430.62,15a14,14,0,0,1,8-2.48,14.19,14.19,0,0,1,8.22,2.57,18.47,18.47,0,0,1,5.89,6.56,16.67,16.67,0,0,1,2.15,8v.11c0,.52-.24.78-.71.78H424Zm7.79-14.67a16.13,16.13,0,0,0-5.25,5.42A17.75,17.75,0,0,0,424.06,29h29.43a15.73,15.73,0,0,0-2.17-6.86A17.22,17.22,0,0,0,446,16.37a12.85,12.85,0,0,0-14.24-.27Z" transform="translate(0 -2.63)" style="fill:#231f20"/><path d="M465.4,2.87a.63.63,0,0,1,.54-.24h0c.44,0,.66.3.66.92v20a18.52,18.52,0,0,1,3.59-5.71,16.82,16.82,0,0,1,5.29-3.89,14.5,14.5,0,0,1,6.21-1.39A13.86,13.86,0,0,1,489.64,15a17.64,17.64,0,0,1,5.84,6.67,19.54,19.54,0,0,1,2.18,9.09,18.88,18.88,0,0,1-2.22,9,18,18,0,0,1-5.9,6.62,13.93,13.93,0,0,1-7.82,2.45,14.58,14.58,0,0,1-6.22-1.38,16.89,16.89,0,0,1-5.28-3.84A18.38,18.38,0,0,1,466.63,38v9.16c0,.61-.22.92-.66.92h0a.61.61,0,0,1-.54-.25,1.09,1.09,0,0,1-.17-.67V3.55A1.12,1.12,0,0,1,465.4,2.87ZM468.71,39a16.28,16.28,0,0,0,5.56,6,13.51,13.51,0,0,0,7.48,2.24A12.51,12.51,0,0,0,488.86,45a16.18,16.18,0,0,0,5.35-6,17.36,17.36,0,0,0,2-8.23,18,18,0,0,0-2-8.34,15.92,15.92,0,0,0-5.3-6.07,12.61,12.61,0,0,0-7.2-2.25,13.55,13.55,0,0,0-7.52,2.25,16.14,16.14,0,0,0-5.53,6.07,17.3,17.3,0,0,0-2.07,8.34A17,17,0,0,0,468.71,39Z" transform="translate(0 -2.63)" style="fill:#231f20"/></g></g></svg>