<svg xmlns="http://www.w3.org/2000/svg" viewBox="0 0 500.23 63.47"><g id="Layer_2" data-name="Layer 2"><g id="Layer_1-2" data-name="Layer 1"><path d="M112.65,45.38a.81.81,0,0,1,.21-.55l0,0a.68.68,0,0,1,.38-.12c.24,0,.5.18.77.55a13.33,13.33,0,0,0,4.81,4.2,15,15,0,0,0,6.87,1.42,17.36,17.36,0,0,0,6.19-1,9.22,9.22,0,0,0,4.36-3.32,9.85,9.85,0,0,0,1.62-5.84,6.53,6.53,0,0,0-1.88-4.9,11.31,11.31,0,0,0-4.24-2.62,55.19,55.19,0,0,0-6-1.61,29.57,29.57,0,0,1-6.93-2.18A10.06,10.06,0,0,1,114.81,26a8.41,8.41,0,0,1-1.36-4.87,10.37,10.37,0,0,1,1.57-5.8,9.8,9.8,0,0,1,4.49-3.66,17.34,17.34,0,0,1,6.87-1.25,15.9,15.9,0,0,1,6.09,1.06,14.18,14.18,0,0,1,4.93,3.62.92.92,0,0,1,.23.63.93.93,0,0,1-.15.52l0,.06a.82.82,0,0,1-.44.14.75.75,0,0,1-.41-.14,4,4,0,0,1-.49-.43,18.22,18.22,0,0,0-2.79-2.27,9.06,9.06,0,0,0-2.88-1.19,17.7,17.7,0,0,0-4-.39,17.24,17.24,0,0,0-5.59.89,9.24,9.24,0,0,0-4.27,2.91,8.08,8.08,0,0,0-1.66,5.3,6.53,6.53,0,0,0,3.06,5.79A23.76,23.76,0,0,0,126.13,30a56.55,56.55,0,0,1,6.68,1.86,11.31,11.31,0,0,1,4.55,3,8,8,0,0,1,2,5.7,11.52,11.52,0,0,1-1.77,6.55,10.57,10.57,0,0,1-4.84,3.93,17.86,17.86,0,0,1-7,1.29A16.67,16.67,0,0,1,118.56,51,14.79,14.79,0,0,1,113,46.15,1.32,1.32,0,0,1,112.65,45.38Z" style="fill:#231f20"/><path d="M159,19.79c.43,0,.64.24.64.72v0a.71.71,0,0,1-.18.47.55.55,0,0,1-.46.22h-6V45.92a5.76,5.76,0,0,0,.83,3.09,3,3,0,0,0,2.71,1.34h1c.64,0,.95.22.95.66v.05a1.16,1.16,0,0,1-.14.51c-.09.2-.31.3-.65.3a12.53,12.53,0,0,1-2.1-.12,4.26,4.26,0,0,1-3-1.92,6.76,6.76,0,0,1-1-3.79V21.23h-4.17a.72.72,0,1,1,0-1.44h4.17V10.52c0-.6.22-.89.67-.89h0c.48,0,.72.29.72.89v9.27Z" style="fill:#231f20"/><path d="M199.24,51.87h0c-.46,0-.69-.32-.69-.95V41.79A18.48,18.48,0,0,1,195,47.42a16.69,16.69,0,0,1-5.2,3.84,14,14,0,0,1-14-1.07,18.19,18.19,0,0,1-6-6.62,18.59,18.59,0,0,1-2.27-9,18.85,18.85,0,0,1,2.27-9.06,18.33,18.33,0,0,1,6-6.69,13.82,13.82,0,0,1,13.94-1.09A16.89,16.89,0,0,1,195,21.6a18.48,18.48,0,0,1,3.57,5.69V17.58a1.26,1.26,0,0,1,.17-.69.57.57,0,0,1,.52-.26h0c.46,0,.69.32.69.95V50.92C199.93,51.55,199.7,51.87,199.24,51.87Zm-2.86-25.6a17.23,17.23,0,0,0-5.58-6.11,12.54,12.54,0,0,0-14.35,0A16.5,16.5,0,0,0,171,26.24a17.21,17.21,0,0,0-2.07,8.31A16.83,16.83,0,0,0,171,42.76a16.61,16.61,0,0,0,5.45,6.05,12.81,12.81,0,0,0,7.19,2.25,13.23,13.23,0,0,0,7.4-2.24,16.07,16.07,0,0,0,5.46-6,17.18,17.18,0,0,0,2-8.24A16.67,16.67,0,0,0,196.38,26.27Z" style="fill:#231f20"/><path d="M211.51,16.66h0c.45,0,.67.3.67.89v7.32a10.65,10.65,0,0,1,2.82-4.3,12.52,12.52,0,0,1,4.15-2.6,12.21,12.21,0,0,1,4.35-.85,10,10,0,0,1,3.74.79,13.94,13.94,0,0,1,3.35,1.85c.91.71,1.37,1.29,1.37,1.75a.51.51,0,0,1-.11.35l0,0a.68.68,0,0,1-.57.31.75.75,0,0,1-.53-.25q-3.5-3.25-7.15-3.25A11,11,0,0,0,214,24.57a15.7,15.7,0,0,0-1.75,7.83V51c0,.61-.23.92-.7.92h0c-.46,0-.69-.31-.69-.92V17.55C210.82,17,211.05,16.66,211.51,16.66Z" style="fill:#231f20"/><path d="M241.76,10.89H253.7a10.14,10.14,0,0,1,5.69,1.72,12.38,12.38,0,0,1,4.15,4.65,13.66,13.66,0,0,1,1.53,6.41A13.45,13.45,0,0,1,263.55,30a12.19,12.19,0,0,1-4.14,4.62,10.2,10.2,0,0,1-5.71,1.71H242.45V51c0,.61-.22.92-.66.92h0c-.46,0-.69-.31-.69-.92V11.66C241.07,11.15,241.3,10.89,241.76,10.89Zm.69,23.86H253.7a9,9,0,0,0,5-1.48,10.22,10.22,0,0,0,3.59-4,12,12,0,0,0,1.3-5.58,12.25,12.25,0,0,0-1.3-5.64A10.37,10.37,0,0,0,258.72,14a9,9,0,0,0-5-1.49H242.45Z" style="fill:#231f20"/><path d="M274.94,34.58a17.57,17.57,0,0,0,2,8.23,16.09,16.09,0,0,0,5.37,6.06,13,13,0,0,0,7.35,2.25,13.43,13.43,0,0,0,4.3-.63A12.6,12.6,0,0,0,297.06,49a33.46,33.46,0,0,0,2.7-2.16.9.9,0,0,1,.61-.26.5.5,0,0,1,.39.18l.05.05a.65.65,0,0,1,.15.44,1,1,0,0,1-.31.71,18.29,18.29,0,0,1-4.95,3.42,14.16,14.16,0,0,1-6.06,1.26,14.35,14.35,0,0,1-8.06-2.44,17.31,17.31,0,0,1-5.88-6.59,19.12,19.12,0,0,1-2.17-9,19.53,19.53,0,0,1,2.17-9.09,17.75,17.75,0,0,1,5.87-6.69,14.32,14.32,0,0,1,16.24.09,18.47,18.47,0,0,1,5.89,6.56,16.68,16.68,0,0,1,2.16,8v.12c0,.51-.24.77-.72.77h-30.2Zm7.78-14.67a16.13,16.13,0,0,0-5.25,5.42A17.89,17.89,0,0,0,275,32.8h29.44a15.88,15.88,0,0,0-2.18-6.86,17.19,17.19,0,0,0-5.3-5.76,12.92,12.92,0,0,0-14.25-.27Z" style="fill:#231f20"/><path d="M316.36,16.91a.61.61,0,0,1,.54-.25h0c.44,0,.67.31.67.92V27a17.21,17.21,0,0,1,3.51-5.57,16.25,16.25,0,0,1,5.18-3.75,14.67,14.67,0,0,1,6.14-1.34,14.3,14.3,0,0,1,7.89,2.42,18,18,0,0,1,6,6.51,18.22,18.22,0,0,1,2.26,8.94,20,20,0,0,1-2.14,9.16,17.41,17.41,0,0,1-5.85,6.73,14.54,14.54,0,0,1-14.37,1.12,16.13,16.13,0,0,1-5.14-3.88,19.1,19.1,0,0,1-3.49-5.67V62.55c0,.61-.23.92-.67.92h0a.63.63,0,0,1-.54-.24,1.14,1.14,0,0,1-.18-.68v-45A1.09,1.09,0,0,1,316.36,16.91Zm3.13,25.75a15.5,15.5,0,0,0,5.31,6.14,13.45,13.45,0,0,0,7.64,2.26,13,13,0,0,0,7.37-2.28,16.14,16.14,0,0,0,5.38-6.16,18.15,18.15,0,0,0,2-8.38,16.66,16.66,0,0,0-2.06-8.16,16.25,16.25,0,0,0-5.47-6,13,13,0,0,0-7.2-2.21A13.53,13.53,0,0,0,325,20.09,15.81,15.81,0,0,0,319.58,26a17.17,17.17,0,0,0-2,8.2A18.75,18.75,0,0,0,319.49,42.66Z" style="fill:#231f20"/><path d="M390.47,51.29a1,1,0,0,1-.31.45.56.56,0,0,1-.33.13h-.08c-.29,0-.51-.19-.64-.58L374.4,12a1.23,1.23,0,0,1-.07-.37.67.67,0,0,1,.23-.55.73.73,0,0,1,.48-.2h.08q.33,0,.54.54l14.11,37.83,14-37.83q.18-.54.57-.54h.05a.82.82,0,0,1,.5.2.68.68,0,0,1,.24.55,1.3,1.3,0,0,1-.08.37l-5.76,15.54,8.15,21.76,14.11-37.88q.18-.54.54-.54h.07a.74.74,0,0,1,.5.21.7.7,0,0,1,.25.56.89.89,0,0,1-.08.35l-14.7,39.28a1,1,0,0,1-.31.45.53.53,0,0,1-.31.13h-.13a.56.56,0,0,1-.33-.13,1,1,0,0,1-.31-.45l-8.19-21.74Z" style="fill:#231f20"/><path d="M426.56,34.58a17.46,17.46,0,0,0,2,8.23,16.15,16.15,0,0,0,5.36,6.06,13,13,0,0,0,7.35,2.25,13.49,13.49,0,0,0,4.31-.63A12.69,12.69,0,0,0,448.68,49a30.29,30.29,0,0,0,2.7-2.16.92.92,0,0,1,.62-.26.48.48,0,0,1,.38.18l.05.05a.61.61,0,0,1,.16.44,1,1,0,0,1-.31.71,18.34,18.34,0,0,1-5,3.42,14.16,14.16,0,0,1-6.06,1.26,14.32,14.32,0,0,1-8.05-2.44,17.31,17.31,0,0,1-5.88-6.59,19.12,19.12,0,0,1-2.18-9,19.54,19.54,0,0,1,2.18-9.09,17.81,17.81,0,0,1,5.86-6.69,14.34,14.34,0,0,1,16.25.09,18.56,18.56,0,0,1,5.89,6.56,16.78,16.78,0,0,1,2.15,8v.12c0,.51-.24.77-.72.77h-30.2Zm7.79-14.67a15.94,15.94,0,0,0-5.25,5.42,17.75,17.75,0,0,0-2.46,7.47h29.43a15.75,15.75,0,0,0-2.18-6.86,17.09,17.09,0,0,0-5.3-5.76,12.9,12.9,0,0,0-14.24-.27Z" style="fill:#231f20"/><path d="M468,6.68a.63.63,0,0,1,.54-.24h0c.44,0,.66.3.66.92v20a18.45,18.45,0,0,1,3.59-5.72,16.71,16.71,0,0,1,5.29-3.89,14.5,14.5,0,0,1,6.21-1.39,13.9,13.9,0,0,1,7.92,2.47,17.72,17.72,0,0,1,5.84,6.67,19.53,19.53,0,0,1,2.17,9.09,19,19,0,0,1-2.21,9,18,18,0,0,1-5.91,6.62,13.83,13.83,0,0,1-7.81,2.45,14.66,14.66,0,0,1-6.23-1.38,16.74,16.74,0,0,1-5.27-3.84,18.38,18.38,0,0,1-3.59-5.63V51c0,.61-.22.92-.66.92h0a.61.61,0,0,1-.54-.25,1.09,1.09,0,0,1-.18-.67V7.36A1.12,1.12,0,0,1,468,6.68Zm3.31,36.1a16.19,16.19,0,0,0,5.56,6,13.51,13.51,0,0,0,7.48,2.24,12.45,12.45,0,0,0,7.1-2.24,16.2,16.2,0,0,0,5.36-6,17.36,17.36,0,0,0,2-8.23,18,18,0,0,0-2-8.34,15.94,15.94,0,0,0-5.31-6.07,12.59,12.59,0,0,0-7.19-2.24,13.54,13.54,0,0,0-7.52,2.24,16.17,16.17,0,0,0-5.54,6.07,17.4,17.4,0,0,0-2.06,8.34A16.86,16.86,0,0,0,471.29,42.78Z" style="fill:#231f20"/><path d="M19.1,40.94H43.73L35.29,56.19a4.36,4.36,0,0,1-7.61,0Z" style="fill:#83ba41"/><path d="M48,33.27,47,35H15.8L.12,7.09a1.05,1.05,0,0,1,1-1.54H32.36a1,1,0,0,1,.91.5L48,32.26A1.06,1.06,0,0,1,48,33.27Z" style="fill:#83ba41"/><path d="M52.85,40.94h24.6l-8,14.37a4.88,4.88,0,0,1-8.54,0Z" style="fill:#276fb8"/><path d="M95.76,7.93,80.71,35H49.55l-.84-1.48a1.58,1.58,0,0,1,0-1.55L62.91,6.35a1.58,1.58,0,0,1,1.42-.8h30A1.6,1.6,0,0,1,95.76,7.93Z" style="fill:#276fb8"/><polygon points="28.26 2.76 68.05 2.76 48.28 38.44 28.26 2.76" style="fill:#f18421"/><path d="M63.36,5.53,48.26,32.77,33,5.53H63.36M72.75,0H23.54l4.62,8.23L43.44,35.47l4.85,8.65,4.81-8.67L68.2,8.21,72.75,0Z" style="fill:#fff"/><polygon points="15.8 35.02 19.1 40.94 3.29 40.94 3.29 35.02 15.8 35.02" style="fill:#fff"/><polygon points="94.68 35.02 94.68 40.94 77.45 40.94 80.71 35.02 94.68 35.02" style="fill:#fff"/></g></g></svg>